<svg id="Livello_1" data-name="Livello 1" xmlns="http://www.w3.org/2000/svg" xmlns:xlink="http://www.w3.org/1999/xlink" viewBox="0 0 57.04 107.85"><defs><style>.cls-1{fill:#fff;}.cls-2{clip-path:url(#clip-path);}.cls-3{clip-path:url(#clip-path-2);}</style><clipPath id="clip-path"><path class="cls-1" d="M7.28,44.36V38.64A38.71,38.71,0,0,0,19,34.73a14.38,14.38,0,0,0,5.44,3.83v5.8a8.58,8.58,0,0,1-17.16,0M15.86,27.2A10.31,10.31,0,0,1,26,35.47a11.49,11.49,0,0,1-5.23-4.08,1.75,1.75,0,0,0-1.26-.75h-.17a1.74,1.74,0,0,0-1.22.5C16.2,33,10.23,34.61,5.77,35.43A10.29,10.29,0,0,1,15.86,27.2M2.13,37.49a1.72,1.72,0,0,0,1.72,1.72v5.15a12,12,0,0,0,24,0V39.21a1.71,1.71,0,0,0,1.71-1.72,13.73,13.73,0,0,0-27.45,0"/></clipPath><clipPath id="clip-path-2"><rect class="cls-1" x="35.86" y="6.9" width="5.52" height="2.76"/></clipPath></defs><title>consulente</title><path class="cls-1" d="M7.28,44.36V38.64A38.71,38.71,0,0,0,19,34.73a14.38,14.38,0,0,0,5.44,3.83v5.8a8.58,8.58,0,0,1-17.16,0M15.86,27.2A10.31,10.31,0,0,1,26,35.47a11.49,11.49,0,0,1-5.23-4.08,1.75,1.75,0,0,0-1.26-.75h-.17a1.74,1.74,0,0,0-1.22.5C16.2,33,10.23,34.61,5.77,35.43A10.29,10.29,0,0,1,15.86,27.2M2.13,37.49a1.72,1.72,0,0,0,1.72,1.72v5.15a12,12,0,0,0,24,0V39.21a1.71,1.71,0,0,0,1.71-1.72,13.73,13.73,0,0,0-27.45,0"/><g class="cls-2"><rect class="cls-1" x="2.11" y="23.75" width="27.49" height="32.64"/></g><path class="cls-1" d="M44.09,0H16.57a2.77,2.77,0,0,0-2.76,2.76V13.81a2.77,2.77,0,0,0,2.76,2.76h5.48v4.14a1.38,1.38,0,0,0,2.36,1l5.11-5.12H44.09a2.76,2.76,0,0,0,2.76-2.76v-11A2.76,2.76,0,0,0,44.09,0m0,13.81H29a1.37,1.37,0,0,0-1,.4l-3.17,3.17V15.19a1.38,1.38,0,0,0-1.38-1.38H16.57v-11H44.09Z"/><rect class="cls-1" x="19.29" y="6.9" width="5.52" height="2.76"/><rect class="cls-1" x="27.57" y="6.9" width="5.52" height="2.76"/><rect class="cls-1" x="35.86" y="6.9" width="5.52" height="2.76"/><g class="cls-3"><rect class="cls-1" x="50.17" y="10.04" width="6.86" height="3.43"/></g><path class="cls-1" d="M40.74,106.13v-12h3.43a1.72,1.72,0,0,0,1.72-1.72V85.54a1.72,1.72,0,0,0-1.72-1.72H39.88v-12A15.46,15.46,0,0,0,24.44,56.37H7.28A15.38,15.38,0,0,0,0,58.2v4.08A12.07,12.07,0,0,1,5.27,60L3.86,69.85a1.74,1.74,0,0,0,.4,1.37,1.71,1.71,0,0,0,1.3.59l.28,0,8.3-1.39V83.82H3.85v-12H.41v12H0v3.44H42.45v3.43H0v3.43H37.31v10.29H0v3.44H39A1.72,1.72,0,0,0,40.74,106.13ZM24.12,68l-5-.84,4.19-5ZM7.59,68l.84-5.87,4.19,5Zm3.35-8.22h9.83l-4.91,5.9Zm25.51,24H31.3v-12H27.87v12H17.57V70.4l8.3,1.39.28,0a1.71,1.71,0,0,0,1.3-.59,1.74,1.74,0,0,0,.4-1.37L26.44,60a12,12,0,0,1,10,11.83Z"/></svg>