<svg id="Livello_1" data-name="Livello 1" xmlns="http://www.w3.org/2000/svg" viewBox="0 0 186.33 48.19"><defs><style>.cls-1{fill:#b4252d;}.cls-2{fill:#1d1d1b;}.cls-3{fill:#666;}</style></defs><title>Logo_pag1</title><path class="cls-1" d="M16.45,18.2a5.34,5.34,0,0,0-4,1.63A5.78,5.78,0,0,0,10.84,24a6.1,6.1,0,0,0,1.51,4.36A5.35,5.35,0,0,0,16.45,30a5.28,5.28,0,0,0,4.07-1.65A6.27,6.27,0,0,0,22,23.91a5.59,5.59,0,0,0-1.6-4.1A5.34,5.34,0,0,0,16.45,18.2Z"/><path class="cls-1" d="M35.71,18.91a5.85,5.85,0,0,0-3.52-1A5.24,5.24,0,0,0,28.9,19a5.42,5.42,0,0,0-2,2.93H37.69A5.7,5.7,0,0,0,35.71,18.91Z"/><path class="cls-1" d="M43,0H5.79A5.52,5.52,0,0,0,.27,5.52V42.67a5.52,5.52,0,0,0,5.52,5.52H43a5.52,5.52,0,0,0,5.52-5.52V5.52A5.52,5.52,0,0,0,43,0Zm-.32,25.08c0,.22,0,.38,0,.49H26.78a4.9,4.9,0,0,0,1.7,3.37,5.69,5.69,0,0,0,3.78,1.23A5.9,5.9,0,0,0,35,29.53a5,5,0,0,0,2-1.82h5a10.77,10.77,0,0,1-3.77,5,9.66,9.66,0,0,1-5.79,1.79,10.4,10.4,0,0,1-4.07-.78A10,10,0,0,1,25,31.43c-.19-.2-.36-.41-.54-.62-.18.22-.37.44-.57.65a10,10,0,0,1-3.36,2.31,10.65,10.65,0,0,1-4.1.78,10.07,10.07,0,0,1-4.06-.79A10.24,10.24,0,0,1,9,31.39,10.82,10.82,0,0,1,6.83,28a10.69,10.69,0,0,1,0-7.89,10,10,0,0,1,2.22-3.33,10.56,10.56,0,0,1,3.36-2.29,9.8,9.8,0,0,1,3.88-.8,10.83,10.83,0,0,1,3.95.71,10.29,10.29,0,0,1,3.31,2.13,12.49,12.49,0,0,1,.85.93,6,6,0,0,1,.41-.47,10.86,10.86,0,0,1,3.41-2.47,9.59,9.59,0,0,1,3.94-.86A10.2,10.2,0,0,1,37,14.81a11,11,0,0,1,3.79,3.29A8.64,8.64,0,0,1,42.19,21a13,13,0,0,1,.46,3.64C42.65,24.69,42.64,24.86,42.63,25.08Z"/><path class="cls-2" d="M60,24.63a3.71,3.71,0,0,1-3.9,3.94,3.62,3.62,0,0,1-3.82-3.81,3.69,3.69,0,0,1,4-3.91A3.59,3.59,0,0,1,60,24.63Zm-5.35.07c0,1.27.53,2.22,1.51,2.22s1.47-.89,1.47-2.22c0-1.1-.42-2.22-1.47-2.22S54.63,23.62,54.63,24.7Z"/><path class="cls-2" d="M60.66,23.37c0-.92,0-1.7-.06-2.35h1.93l.11,1h0a2.59,2.59,0,0,1,2.24-1.16,2.08,2.08,0,0,1,2,1.25h0a3.6,3.6,0,0,1,1-.89,2.71,2.71,0,0,1,1.41-.36c1.42,0,2.49,1,2.49,3.2V28.4H69.59v-4c0-1.08-.35-1.7-1.09-1.7a1.13,1.13,0,0,0-1.06.8,2,2,0,0,0-.09.59V28.4H65.12V24.26c0-.93-.34-1.57-1.06-1.57a1.17,1.17,0,0,0-1.07.83,1.51,1.51,0,0,0-.1.58v4.3H60.66Z"/><path class="cls-2" d="M72.91,23.37c0-.92,0-1.7-.07-2.35h2l.1,1h0a2.7,2.7,0,0,1,2.28-1.18c1.51,0,2.64,1,2.64,3.17V28.4H77.62V24.31c0-.95-.33-1.6-1.16-1.6a1.23,1.23,0,0,0-1.17.86,1.59,1.59,0,0,0-.09.57V28.4H72.91Z"/><path class="cls-2" d="M83.39,19a1.16,1.16,0,0,1-1.24,1.15,1.16,1.16,0,1,1,0-2.31A1.16,1.16,0,0,1,83.39,19ZM81,28.4V21h2.3V28.4Z"/><path class="cls-2" d="M88.61,28.4l-.13-.74h0a2.65,2.65,0,0,1-2.11.91,2.27,2.27,0,0,1-2.39-2.27c0-1.91,1.72-2.84,4.33-2.82v-.11c0-.39-.21-.95-1.34-.95a4.15,4.15,0,0,0-2,.56l-.42-1.48a6,6,0,0,1,2.87-.65c2.46,0,3.25,1.45,3.25,3.19v2.57a12.1,12.1,0,0,0,.1,1.79Zm-.27-3.49c-1.21,0-2.15.28-2.15,1.17a.82.82,0,0,0,.91.87,1.24,1.24,0,0,0,1.19-.84,1.68,1.68,0,0,0,0-.4Z"/><path class="cls-2" d="M95.71,25.44c.07.95,1,1.41,2.08,1.41a6.69,6.69,0,0,0,2-.3l.3,1.55a7.29,7.29,0,0,1-2.67.45c-2.51,0-3.94-1.45-3.94-3.76a3.7,3.7,0,0,1,3.73-3.94c2.39,0,3.29,1.86,3.29,3.69a5.5,5.5,0,0,1-.07.9Zm2.7-1.57a1.33,1.33,0,0,0-1.3-1.49,1.51,1.51,0,0,0-1.42,1.49Z"/><path class="cls-2" d="M101.17,23.37c0-.92,0-1.7-.06-2.35h2l.1,1h.05a2.7,2.7,0,0,1,2.28-1.18c1.51,0,2.64,1,2.64,3.17V28.4h-2.29V24.31c0-.95-.34-1.6-1.17-1.6a1.23,1.23,0,0,0-1.16.86,1.59,1.59,0,0,0-.09.57V28.4h-2.3Z"/><path class="cls-2" d="M111.05,25.44c.08.95,1,1.41,2.09,1.41a6.62,6.62,0,0,0,2-.3l.31,1.55a7.38,7.38,0,0,1-2.68.45c-2.5,0-3.94-1.45-3.94-3.76a3.7,3.7,0,0,1,3.73-3.94c2.39,0,3.29,1.86,3.29,3.69a5.5,5.5,0,0,1-.07.9Zm2.71-1.57a1.33,1.33,0,0,0-1.3-1.49A1.5,1.5,0,0,0,111,23.87Z"/><path class="cls-2" d="M116.5,23.45c0-1.09,0-1.8-.06-2.43h2l.08,1.36h.06a2.15,2.15,0,0,1,2-1.53,2.33,2.33,0,0,1,.48,0V23a3.24,3.24,0,0,0-.62-.06,1.48,1.48,0,0,0-1.57,1.16,2.82,2.82,0,0,0,0,.52V28.4h-2.3Z"/><path class="cls-2" d="M128.43,21c0,.47-.06,1.08-.06,2.19v4.12a4.24,4.24,0,0,1-1.11,3.32,4.54,4.54,0,0,1-3,.91,5.87,5.87,0,0,1-2.66-.57l.45-1.74a4.59,4.59,0,0,0,2.15.56,1.76,1.76,0,0,0,1.92-1.95v-.48h0a2.36,2.36,0,0,1-2,1c-1.82,0-3.12-1.48-3.12-3.61,0-2.37,1.54-3.88,3.35-3.88a2.22,2.22,0,0,1,2,1h0l.08-.87Zm-2.35,3a1.79,1.79,0,0,0,0-.42,1.25,1.25,0,0,0-1.24-1c-.83,0-1.51.75-1.51,2.1,0,1.1.55,2,1.51,2a1.24,1.24,0,0,0,1.21-.94,1.9,1.9,0,0,0,.08-.6Z"/><path class="cls-2" d="M131.84,19a1.15,1.15,0,0,1-1.23,1.15,1.16,1.16,0,1,1,0-2.31A1.15,1.15,0,0,1,131.84,19Zm-2.37,9.44V21h2.3V28.4Z"/><path class="cls-2" d="M137.07,28.4l-.14-.74h0a2.66,2.66,0,0,1-2.12.91,2.26,2.26,0,0,1-2.38-2.27c0-1.91,1.72-2.84,4.33-2.82v-.11c0-.39-.21-.95-1.34-.95a4.15,4.15,0,0,0-2,.56l-.42-1.48a6,6,0,0,1,2.87-.65c2.46,0,3.24,1.45,3.24,3.19v2.57a10.69,10.69,0,0,0,.11,1.79Zm-.27-3.49c-1.21,0-2.15.28-2.15,1.17a.82.82,0,0,0,.91.87,1.25,1.25,0,0,0,1.19-.84,1.68,1.68,0,0,0,.05-.4Z"/><path class="cls-3" d="M53.89,43.07h-.43l-1.64-5h.56l1.3,4,1.29-4h.56Z"/><path class="cls-3" d="M55.84,43.07v-5h.53v5Z"/><path class="cls-3" d="M60.25,43.07l-.4-1.13H57.67l-.4,1.13h-.56l1.83-5H59l1.83,5Zm-1.48-4.23-.94,2.64H59.7Z"/><path class="cls-3" d="M64.37,43.07h-2v-5H64.3a1.32,1.32,0,0,1,1.47,1.33A1.14,1.14,0,0,1,65,40.5a1.22,1.22,0,0,1,.81,1.19A1.32,1.32,0,0,1,64.37,43.07Zm-.11-4.51H63v1.73h1.3a.86.86,0,0,0,1-.87C65.24,38.82,64.81,38.56,64.26,38.56Zm.06,2.2H63v1.83h1.36a.92.92,0,1,0,0-1.83Z"/><path class="cls-3" d="M66.63,43.07v-5h3.1v.48H67.16v1.75h2.19v.48H67.16v1.8h2.57v.48Z"/><path class="cls-3" d="M73.27,43.07l-.4-1.13H70.69l-.4,1.13h-.56l1.83-5H72l1.83,5Zm-1.48-4.23-.94,2.64h1.87Z"/><path class="cls-3" d="M75.21,38.56v4.51h-.53V38.56H73.24v-.48h3.42v.48Z"/><path class="cls-3" d="M79.81,42.59a1.77,1.77,0,0,1-1.28.52,1.73,1.73,0,0,1-1.27-.52c-.47-.47-.47-1-.47-2s0-1.55.47-2A1.73,1.73,0,0,1,78.53,38a1.77,1.77,0,0,1,1.28.52c.47.46.47.95.47,2S80.28,42.12,79.81,42.59Zm-.42-3.72a1.21,1.21,0,0,0-.86-.36,1.23,1.23,0,0,0-.86.36c-.31.32-.35.66-.35,1.7s0,1.38.35,1.7a1.19,1.19,0,0,0,.86.36,1.17,1.17,0,0,0,.86-.36c.32-.32.35-.65.35-1.7S79.71,39.19,79.39,38.87Z"/><path class="cls-3" d="M82.86,38.56v1.83h2.19v.48H82.86v2.2h-.53v-5h3.1v.48Z"/><path class="cls-3" d="M85.13,43.07v-.66h.66v.66Z"/><path class="cls-3" d="M91.67,43.07V39.28l-1.36,3h-.46l-1.38-3v3.79h-.54v-5h.54l1.62,3.54,1.58-3.54h.54v5Z"/><path class="cls-3" d="M96.08,43.07l-.4-1.13H93.51l-.4,1.13h-.57l1.83-5h.45l1.83,5Zm-1.47-4.23-.94,2.64h1.86Z"/><path class="cls-3" d="M99.85,43.07l-1.14-2.22H97.52v2.22H97v-5H98.9a1.34,1.34,0,0,1,1.47,1.39,1.29,1.29,0,0,1-1.08,1.33l1.18,2.27Zm-1-4.51H97.52v1.82h1.33a.91.91,0,1,0,0-1.82Z"/><path class="cls-3" d="M101.11,43.07v-5h.53v5Z"/><path class="cls-3" d="M105.79,43.07l-2.65-4v4h-.53v-5h.51l2.64,4v-4h.54v5Z"/><path class="cls-3" d="M110.1,42.59a1.77,1.77,0,0,1-1.28.52,1.73,1.73,0,0,1-1.27-.52c-.47-.47-.47-1-.47-2s0-1.55.47-2a1.73,1.73,0,0,1,1.27-.52,1.77,1.77,0,0,1,1.28.52c.47.46.47.95.47,2S110.57,42.12,110.1,42.59Zm-.42-3.72a1.21,1.21,0,0,0-.86-.36,1.23,1.23,0,0,0-.86.36c-.31.32-.35.66-.35,1.7s0,1.38.35,1.7a1.19,1.19,0,0,0,.86.36,1.17,1.17,0,0,0,.86-.36c.32-.32.35-.65.35-1.7S110,39.19,109.68,38.87Z"/><path class="cls-3" d="M111.24,44.07V42.45h.62v1.07Z"/><path class="cls-3" d="M115.09,43.07V38.64l-.94.82v-.58l.94-.8h.5v5Z"/><path class="cls-3" d="M118.29,43.11a1.32,1.32,0,0,1-1.36-1.38V39.41a1.37,1.37,0,1,1,2.73,0v2.32A1.32,1.32,0,0,1,118.29,43.11Zm.86-3.67a.87.87,0,1,0-1.72,0v2.27a.86.86,0,1,0,1.72,0Z"/><path class="cls-3" d="M120.12,43.07v-.45l2-2.5a1.16,1.16,0,0,0,.28-.74.82.82,0,0,0-.87-.9.81.81,0,0,0-.86.91h-.51a1.38,1.38,0,0,1,2.75,0,1.51,1.51,0,0,1-.4,1l-1.75,2.23h2.15v.45Z"/><path class="cls-3" d="M124.64,41.41v-.47h1.92v.47Z"/><path class="cls-3" d="M129.72,43.11a1.41,1.41,0,0,1-1.47-1.42,1.36,1.36,0,0,1,.75-1.21,1.22,1.22,0,0,1-.65-1.11,1.38,1.38,0,0,1,2.75,0,1.22,1.22,0,0,1-.65,1.11,1.35,1.35,0,0,1,.74,1.21A1.4,1.4,0,0,1,129.72,43.11Zm0-2.4a1,1,0,1,0,1,1A1,1,0,0,0,129.72,40.71Zm0-2.23a.85.85,0,0,0-.87.9.87.87,0,1,0,1.74,0A.85.85,0,0,0,129.72,38.48Z"/><path class="cls-3" d="M132.65,43.07h-.53l1.73-4.54h-1.74v.78h-.5V38.08h2.77v.45Z"/><path class="cls-3" d="M136.09,43.11a1.32,1.32,0,0,1-1.36-1.38V39.41a1.37,1.37,0,1,1,2.73,0v2.32A1.32,1.32,0,0,1,136.09,43.11Zm.86-3.67a.87.87,0,1,0-1.72,0v2.27a.86.86,0,1,0,1.72,0Z"/><path class="cls-3" d="M140.22,42.27v.8h-.5v-.8h-2v-.45l1.8-3.74h.54l-1.8,3.74h1.45V40.4h.5v1.42h.61v.45Z"/><path class="cls-3" d="M142.46,43.11a1.31,1.31,0,0,1-1.36-1.38V39.41a1.37,1.37,0,1,1,2.73,0v2.32A1.32,1.32,0,0,1,142.46,43.11Zm.86-3.67a.87.87,0,1,0-1.72,0v2.27a.86.86,0,1,0,1.72,0Z"/><path class="cls-3" d="M145.49,43.07v-.51l2.5-4h-2.4v-.48h3v.45l-2.52,4.06h2.52v.48Z"/><path class="cls-3" d="M150.9,43.11a1.65,1.65,0,0,1-1.73-1.69V38.08h.53v3.3a1.21,1.21,0,1,0,2.42,0v-3.3h.53v3.34A1.66,1.66,0,0,1,150.9,43.11Z"/><path class="cls-3" d="M157.29,43.07V39.28l-1.37,3h-.45l-1.39-3v3.79h-.53v-5h.53l1.63,3.54,1.58-3.54h.53v5Z"/><path class="cls-3" d="M160.65,41h-1.32v2.06h-.54v-5h1.86a1.47,1.47,0,1,1,0,2.93Zm-.05-2.45h-1.27v2h1.27a1,1,0,0,0,1.06-1A.94.94,0,0,0,160.6,38.56Z"/><path class="cls-3" d="M165.29,43.07l-.4-1.13h-2.18l-.39,1.13h-.57l1.83-5H164l1.83,5Zm-1.48-4.23-.93,2.64h1.86Z"/><path class="cls-3" d="M169.37,43.07l-2.64-4v4h-.54v-5h.51l2.64,4v-4h.54v5Z"/><path class="cls-3" d="M173.68,42.59a1.77,1.77,0,0,1-1.28.52,1.74,1.74,0,0,1-1.27-.52c-.47-.47-.47-1-.47-2s0-1.55.47-2A1.74,1.74,0,0,1,172.4,38a1.77,1.77,0,0,1,1.28.52c.47.46.47.95.47,2S174.15,42.12,173.68,42.59Zm-.42-3.72a1.21,1.21,0,0,0-.86-.36,1.23,1.23,0,0,0-.86.36c-.31.32-.35.66-.35,1.7s0,1.38.35,1.7a1.19,1.19,0,0,0,.86.36,1.17,1.17,0,0,0,.86-.36c.32-.32.35-.65.35-1.7S173.58,39.19,173.26,38.87Z"/><path class="cls-3" d="M176.78,43.72a2.51,2.51,0,0,1-.51-.6,1.5,1.5,0,0,1-.14-.72V38.74a1.52,1.52,0,0,1,.14-.72,2.51,2.51,0,0,1,.51-.6l.34.34a1.79,1.79,0,0,0-.38.46,1.31,1.31,0,0,0-.11.57v3.57a1.31,1.31,0,0,0,.11.57,1.75,1.75,0,0,0,.38.45Z"/><path class="cls-3" d="M179.37,43.11a1.76,1.76,0,0,1-1.27-.52c-.47-.47-.47-1-.47-2s0-1.55.47-2a1.76,1.76,0,0,1,1.27-.52,1.67,1.67,0,0,1,1.73,1.48h-.54a1.18,1.18,0,0,0-1.19-1,1.24,1.24,0,0,0-.86.35c-.31.33-.35.67-.35,1.71s0,1.39.35,1.71a1.24,1.24,0,0,0,.86.35,1.19,1.19,0,0,0,1.2-1h.53A1.68,1.68,0,0,1,179.37,43.11Z"/><path class="cls-3" d="M183.09,43.11a2.18,2.18,0,0,1-1.71-.66l.37-.37a1.69,1.69,0,0,0,1.36.55c.72,0,1.17-.34,1.17-.92a.82.82,0,0,0-.24-.63,1,1,0,0,0-.65-.23l-.58-.1a1.9,1.9,0,0,1-.92-.37,1.21,1.21,0,0,1-.37-.94,1.4,1.4,0,0,1,1.59-1.4,2,2,0,0,1,1.49.54l-.35.35a1.55,1.55,0,0,0-1.16-.43.92.92,0,0,0-1.05.92.72.72,0,0,0,.23.58,1.41,1.41,0,0,0,.67.27l.54.08a1.55,1.55,0,0,1,.91.36,1.21,1.21,0,0,1,.42,1C184.81,42.57,184.13,43.11,183.09,43.11Z"/><path class="cls-3" d="M186,43.12a2.45,2.45,0,0,1-.5.6l-.36-.35a2.07,2.07,0,0,0,.39-.46,1.27,1.27,0,0,0,.09-.55V38.79a1.29,1.29,0,0,0-.09-.56,2,2,0,0,0-.39-.45l.36-.36a2.45,2.45,0,0,1,.5.6,1.41,1.41,0,0,1,.14.72V42.4A1.39,1.39,0,0,1,186,43.12Z"/></svg>