<svg id="Livello_1" data-name="Livello 1" xmlns="http://www.w3.org/2000/svg" viewBox="0 0 261.7 99.93"><defs><style>.cls-1{fill:#2596aa;}</style></defs><title>header_gas</title><path class="cls-1" d="M108,74.56a2.12,2.12,0,0,0-1.19-.27h-.77v2.34h.81a1.81,1.81,0,0,0,1.18-.31,1.1,1.1,0,0,0,.36-.89A1,1,0,0,0,108,74.56Z"/><polygon class="cls-1" points="90.13 65.92 91.37 65.92 90.77 64.03 90.13 65.92"/><path class="cls-1" d="M132.92,74.2a1.91,1.91,0,0,0-1.59.67,4,4,0,0,0,0,4,2.16,2.16,0,0,0,3.15,0,3.2,3.2,0,0,0,.53-2,3.24,3.24,0,0,0-.53-2A1.85,1.85,0,0,0,132.92,74.2Z"/><path class="cls-1" d="M152.21,76a.88.88,0,0,0,.34-.78.78.78,0,0,0-.37-.73,2.23,2.23,0,0,0-1.15-.23h-1v2h1.12A1.86,1.86,0,0,0,152.21,76Z"/><path class="cls-1" d="M83.43,74.9c-.09-.28-.15-.49-.18-.62a11.66,11.66,0,0,1-.39,1.32l-.64,1.86H84.3l-.67-1.95C83.58,75.38,83.51,75.18,83.43,74.9Z"/><path class="cls-1" d="M120.18,74.9c-.09-.28-.15-.49-.18-.62a11.66,11.66,0,0,1-.39,1.32L119,77.46h2.08l-.67-1.95C120.33,75.38,120.26,75.18,120.18,74.9Z"/><path class="cls-1" d="M77.63,74.56a2.12,2.12,0,0,0-1.19-.27h-.77v2.34h.81a1.81,1.81,0,0,0,1.18-.31,1.1,1.1,0,0,0,.36-.89A1,1,0,0,0,77.63,74.56Z"/><path class="cls-1" d="M34.05,63.89a.61.61,0,0,0,.15-.41.56.56,0,0,0-.63-.58H32.48v1.16h1.09A.62.62,0,0,0,34.05,63.89Z"/><path class="cls-1" d="M39,66.6a.86.86,0,0,0,.31.25,1,1,0,0,0,.41.1.8.8,0,0,0,.65-.25,1.44,1.44,0,0,0,.25-.58,12.64,12.64,0,0,0,0-2.46,1.2,1.2,0,0,0-.2-.52.68.68,0,0,0-.29-.23.91.91,0,0,0-.41-.08.88.88,0,0,0-.41.08.93.93,0,0,0-.31.25,1.14,1.14,0,0,0-.18.49,8.36,8.36,0,0,0-.06,1.24,8.2,8.2,0,0,0,.06,1.23A1.09,1.09,0,0,0,39,66.6Z"/><path class="cls-1" d="M33.66,65.63H32.48v1.26h1.18a.59.59,0,0,0,.48-.19.67.67,0,0,0,.16-.45.65.65,0,0,0-.16-.44A.59.59,0,0,0,33.66,65.63Z"/><polygon class="cls-1" points="74.91 65.92 76.15 65.92 75.55 64.03 74.91 65.92"/><path class="cls-1" d="M47.27,74.56a2.12,2.12,0,0,0-1.19-.27h-.77v2.34h.81a1.79,1.79,0,0,0,1.18-.31,1.07,1.07,0,0,0,.37-.89A.94.94,0,0,0,47.27,74.56Z"/><path class="cls-1" d="M151.2,77.2H150v2.26h1.24a1.77,1.77,0,0,0,1.1-.28,1,1,0,0,0,.38-.88,1,1,0,0,0-.38-.83A2,2,0,0,0,151.2,77.2Z"/><path class="cls-1" d="M39.28,74.2a1.91,1.91,0,0,0-1.59.67,4,4,0,0,0,0,4,1.9,1.9,0,0,0,1.58.68,1.88,1.88,0,0,0,1.57-.68,3.2,3.2,0,0,0,.53-2,3.31,3.31,0,0,0-.52-2A1.88,1.88,0,0,0,39.28,74.2Z"/><path class="cls-1" d="M170.43,74.2a1.89,1.89,0,0,0-1.58.67,4,4,0,0,0,0,4,2.15,2.15,0,0,0,3.14,0,3.14,3.14,0,0,0,.53-2,3.25,3.25,0,0,0-.52-2A1.86,1.86,0,0,0,170.43,74.2Z"/><path class="cls-1" d="M164.16,74.56a2.12,2.12,0,0,0-1.19-.27h-.77v2.34H163a1.79,1.79,0,0,0,1.18-.31,1.07,1.07,0,0,0,.37-.89A.94.94,0,0,0,164.16,74.56Z"/><path class="cls-1" d="M225.45,79.8c0-3.55-4-9.89-7.88-14.76-3.85,4.87-7.87,11.21-7.87,14.76a9.63,9.63,0,0,0,4.53,8.47,12.62,12.62,0,0,0,6.68,0A9.62,9.62,0,0,0,225.45,79.8Z"/><path class="cls-1" d="M216.42,63.62a1.47,1.47,0,0,1,2.31,0c2.56,3.2,8.51,11.18,8.51,16.18A12.36,12.36,0,0,1,225.61,86a19,19,0,0,0,7.25-15.33c0-8.79-12.14-24.53-15.29-28.47-3.14,3.94-15.28,19.68-15.28,28.47A19,19,0,0,0,209.54,86a12.37,12.37,0,0,1-1.64-6.19C207.9,74.8,213.86,66.82,216.42,63.62Z"/><path class="cls-1" d="M0,0V88.43a11.49,11.49,0,0,0,11.49,11.5H261.7V0ZM49.42,61.33h1.75V66.9h3v1.56H49.42ZM37.13,63.16a1.94,1.94,0,0,1,.56-1,3,3,0,0,1,.94-.65,2.75,2.75,0,0,1,1.11-.2,2.48,2.48,0,0,1,1.84.65,2.52,2.52,0,0,1,.76,1.26,10.64,10.64,0,0,1,.11,1.71,10.34,10.34,0,0,1-.11,1.72,2.07,2.07,0,0,1-.61,1.1,3,3,0,0,1-.88.6,2.93,2.93,0,0,1-1.11.2,2.49,2.49,0,0,1-1.84-.65,2.45,2.45,0,0,1-.76-1.27,9.53,9.53,0,0,1-.11-1.7A10.71,10.71,0,0,1,37.13,63.16ZM35,74.29H32.11v2.23H34.8v1H32.11v2.93H31V73.31h4Zm-1.15-5.83h-3.1V61.33h2.95a2.34,2.34,0,0,1,1.68.56,2,2,0,0,1,.59,1.5,1.49,1.49,0,0,1-.24.87,2.31,2.31,0,0,1-.54.54,2.27,2.27,0,0,1,.63.56,1.68,1.68,0,0,1,.25,1,2,2,0,0,1-.62,1.55A2.29,2.29,0,0,1,33.83,68.46Zm7.91,11.12a3.17,3.17,0,0,1-2.47,1,3.15,3.15,0,0,1-2.48-1,4.69,4.69,0,0,1,0-5.44,3.22,3.22,0,0,1,2.49-1,3.16,3.16,0,0,1,2.46,1,4.66,4.66,0,0,1,0,5.42Zm1.92-18.25h1.75V66.9h3v1.56H43.66Zm4.51,19.11-1.71-2.85H45.31v2.85H44.14V73.31h2a3.38,3.38,0,0,1,2.05.51,1.88,1.88,0,0,1,.66,1.57,2,2,0,0,1-1.39,1.9l2,3.15Zm8.31,0H55.05l-3.51-5.69h0l0,.31c0,.61.06,1.16.06,1.66v3.72H50.53V73.31H52L55.45,79h0c0-.08,0-.35,0-.82s0-.84,0-1.1V73.31h1.07Zm3.05,0H58.37V73.31h1.16ZM60,62.89H56.93v1.19h2.64v1.56H56.93V66.9H60v1.56H55.18V61.33H60Zm6,11.42h-2.1v6.14H62.72V74.31h-2.1v-1H66Zm.11-11.42H64.34v5.57H62.59V62.89H60.84V61.33h5.25Zm.6-1.56h5.25v1.56H70.19v5.57H68.44V62.89H66.69Zm6,16.6a2.72,2.72,0,0,1-.34,1.38,2.17,2.17,0,0,1-1,.91,3.32,3.32,0,0,1-1.53.32,2.87,2.87,0,0,1-2.07-.7A2.55,2.55,0,0,1,67,77.91v-4.6h1.18v4.51a1.79,1.79,0,0,0,.41,1.31,1.68,1.68,0,0,0,1.26.42q1.65,0,1.65-1.74v-4.5h1.16Zm1.4-9.47H72.24l2.59-7.13h1.35l2.59,7.13H76.94l-.33-1.07H74.42Zm4.46,12-1.71-2.85H75.67v2.85H74.5V73.31h2a3.33,3.33,0,0,1,2,.51,1.89,1.89,0,0,1,.67,1.57,2,2,0,0,1-1.39,1.9l2,3.15Zm6.79,0-.71-2H81.88l-.7,2H80l2.67-7.17h1.27l2.67,7.17ZM87,65.34a5,5,0,0,1-.16,1.42,2.32,2.32,0,0,1-.56.95,2.45,2.45,0,0,1-.94.62,3.39,3.39,0,0,1-1.13.18,2.44,2.44,0,0,1-1.83-.66,2.39,2.39,0,0,1-.76-1.26,9.53,9.53,0,0,1-.11-1.7,10.71,10.71,0,0,1,.1-1.73,1.88,1.88,0,0,1,.56-1,3.07,3.07,0,0,1,.93-.66,2.75,2.75,0,0,1,1.11-.2,2.62,2.62,0,0,1,1.95.68A2.86,2.86,0,0,1,87,63.63H85.2a1.18,1.18,0,0,0-.34-.61,1,1,0,0,0-.68-.19.81.81,0,0,0-.71.33,1.14,1.14,0,0,0-.18.49,8.27,8.27,0,0,0-.06,1.24,8.55,8.55,0,0,0,.06,1.24,1.43,1.43,0,0,0,.24.58.8.8,0,0,0,.65.24,1,1,0,0,0,.72-.22,1,1,0,0,0,.26-.4,1.16,1.16,0,0,0,.07-.42V65.8h-1V64.35H87Zm2.32,3.12H87.46l2.59-7.13H91.4L94,68.46H92.16l-.33-1.07H89.64Zm8.16,12H96.33V76.92c0-.36,0-.82,0-1.39s0-.92.05-1h0l-2.14,6h-1l-2.07-6h0c0,.89.08,1.72.08,2.49v3.48H90.1V73.31h1.65l2,5.68h0l2-5.68h1.65ZM98.7,67.91a3.13,3.13,0,0,1-2,.6,5,5,0,0,1-1.54-.21A2.82,2.82,0,0,1,94,67.57l1.12-1.12a1.55,1.55,0,0,0,.68.38,3.39,3.39,0,0,0,.91.12c.68,0,1-.22,1-.64a.54.54,0,0,0-.11-.38.59.59,0,0,0-.21-.16.77.77,0,0,0-.29-.07l-.86-.12a2.48,2.48,0,0,1-1.44-.64,2,2,0,0,1-.48-1.42,2.07,2.07,0,0,1,.7-1.62,2.72,2.72,0,0,1,1.9-.63,4.25,4.25,0,0,1,1.36.19,2.7,2.7,0,0,1,1,.66l-1.1,1.1a1.32,1.32,0,0,0-.49-.31,2,2,0,0,0-.73-.11h-.13a.94.94,0,0,0-.65.19.62.62,0,0,0-.21.47.48.48,0,0,0,0,.18.72.72,0,0,0,.11.15.7.7,0,0,0,.19.13.92.92,0,0,0,.3.08l.86.12a2.33,2.33,0,0,1,1.31.49,1.87,1.87,0,0,1,.49.75,3.07,3.07,0,0,1,.13.91A2,2,0,0,1,98.7,67.91Zm4.67,6.38H100.5v1.95h2.69v1H100.5v2.24h2.87v1h-4V73.31h4Zm5.57,6.15-1.71-2.85h-1.15v2.85h-1.17V73.31h2a3.33,3.33,0,0,1,2,.51,1.89,1.89,0,0,1,.67,1.57,2,2,0,0,1-1.39,1.9l2,3.15Zm3.79-1.57a2,2,0,0,0,1.61.68,4.31,4.31,0,0,0,.88-.09,8.32,8.32,0,0,0,.88-.24v1a5.37,5.37,0,0,1-1.9.31,3,3,0,0,1-2.41-1,4,4,0,0,1-.84-2.71,4.38,4.38,0,0,1,.41-1.95,2.87,2.87,0,0,1,1.18-1.28,3.5,3.5,0,0,1,1.81-.45,4.57,4.57,0,0,1,2,.46l-.42,1a6.36,6.36,0,0,0-.76-.31,3,3,0,0,0-.85-.12,1.9,1.9,0,0,0-1.58.71,3,3,0,0,0-.58,2A3.05,3.05,0,0,0,112.73,78.87Zm9.34,1.58-.71-2h-2.73l-.7,2H116.7l2.67-7.17h1.27l2.67,7.17Zm6.75-6.14h-2.1v6.14h-1.17V74.31h-2.1v-1h5.37Zm6.56,5.27a3.68,3.68,0,0,1-5,0,4,4,0,0,1-.86-2.72,3.88,3.88,0,0,1,.87-2.72,3.22,3.22,0,0,1,2.49-1,3.16,3.16,0,0,1,2.46,1,4.66,4.66,0,0,1,0,5.42Zm9.19.87h-4.19V73.31h1.17v6.13h3Zm2.4,0H145.8V73.31H147Zm6.33-.55a2.91,2.91,0,0,1-1.87.55h-2.58V73.31H151a4,4,0,0,1,2.13.43,1.49,1.49,0,0,1,.66,1.35,1.65,1.65,0,0,1-.32,1,1.5,1.5,0,0,1-.93.53v0a1.83,1.83,0,0,1,1.1.55,1.68,1.68,0,0,1,.36,1.13A1.85,1.85,0,0,1,153.3,79.9Zm6.19-5.61h-2.87v1.95h2.69v1h-2.69v2.24h2.87v1h-4V73.31h4Zm5.57,6.15-1.71-2.85H162.2v2.85H161V73.31h2a3.38,3.38,0,0,1,2,.51,1.88,1.88,0,0,1,.66,1.57,2,2,0,0,1-1.39,1.9l2,3.15Zm7.83-.86a3.67,3.67,0,0,1-4.95,0,3.92,3.92,0,0,1-.87-2.72,3.84,3.84,0,0,1,.88-2.72,3.2,3.2,0,0,1,2.48-1,3.16,3.16,0,0,1,2.46,1,4.66,4.66,0,0,1,0,5.42Zm46.38,11.19a8.07,8.07,0,0,1-3.39,0c-8.82-1-15.74-9.63-15.74-20.11,0-4.19,2.35-10.09,7-17.52a136.84,136.84,0,0,1,9.05-12.66,1.8,1.8,0,0,1,1.39-.66h0a1.8,1.8,0,0,1,1.39.66,135.35,135.35,0,0,1,9,12.66c4.65,7.43,7,13.33,7,17.52C235,81.14,228.09,89.78,219.27,90.77Z"/></svg>