<svg id="Livello_1" data-name="Livello 1" xmlns="http://www.w3.org/2000/svg" xmlns:xlink="http://www.w3.org/1999/xlink" viewBox="0 0 484.72 173.48"><defs><style>.cls-1,.cls-9{fill:none;}.cls-2{fill:#fff;}.cls-3{fill:#ffde32;}.cls-4{clip-path:url(#clip-path);}.cls-5{fill:url(#Sfumatura_senza_nome);}.cls-6{clip-path:url(#clip-path-2);}.cls-7,.cls-8{fill:#2596aa;}.cls-8{fill-rule:evenodd;}.cls-9{stroke:#2596aa;stroke-miterlimit:10;stroke-width:0.9px;}</style><clipPath id="clip-path"><polygon class="cls-1" points="295.32 173.48 484.73 173.48 484.73 90.03 295.32 173.48"/></clipPath><linearGradient id="Sfumatura_senza_nome" y1="173.48" x2="1" y2="173.48" gradientTransform="matrix(189.41, 0, 0, -189.41, 295.32, 32990.27)" gradientUnits="userSpaceOnUse"><stop offset="0" stop-color="#2596aa"/><stop offset="0.99" stop-color="#006d73"/><stop offset="1" stop-color="#006d73"/></linearGradient><clipPath id="clip-path-2"><rect class="cls-1" width="484.72" height="173.48"/></clipPath></defs><title>offerta gas</title><rect class="cls-2" width="484.73" height="173.48"/><rect class="cls-3" x="98.84" y="118.5" width="262.59" height="15.72" transform="matrix(1, -0.03, 0.03, 1, -3.1, 5.83)"/><g class="cls-4"><rect class="cls-5" x="295.32" y="90.03" width="189.41" height="83.45"/></g><g class="cls-6"><path class="cls-7" d="M21.86,156.84a2.72,2.72,0,0,1-1.07-1,2.9,2.9,0,0,1-.38-1.49,2.86,2.86,0,0,1,.38-1.48,2.81,2.81,0,0,1,1.07-1,3.12,3.12,0,0,1,1.53-.37,3.2,3.2,0,0,1,1.17.21,2.42,2.42,0,0,1,.91.62l-.38.38A2.28,2.28,0,0,0,23.4,152a2.43,2.43,0,0,0-1.22.31,2.2,2.2,0,0,0-.87.84,2.5,2.5,0,0,0,0,2.41,2.27,2.27,0,0,0,.87.84,2.43,2.43,0,0,0,1.22.31,2.26,2.26,0,0,0,1.69-.68l.38.38a2.38,2.38,0,0,1-.92.62,3.2,3.2,0,0,1-1.17.22,3.09,3.09,0,0,1-1.52-.38"/><path class="cls-7" d="M27.59,156.84a2.77,2.77,0,0,1-1.08-1,3.07,3.07,0,0,1,0-3,2.75,2.75,0,0,1,1.08-1,3.29,3.29,0,0,1,3.05,0,2.81,2.81,0,0,1,1.07,1,2.87,2.87,0,0,1,.39,1.48,2.91,2.91,0,0,1-.39,1.49,2.79,2.79,0,0,1-1.07,1,3.25,3.25,0,0,1-3.05,0m2.75-.46a2.31,2.31,0,0,0,.85-.85,2.5,2.5,0,0,0,0-2.41,2.24,2.24,0,0,0-.85-.85,2.51,2.51,0,0,0-1.22-.3,2.48,2.48,0,0,0-1.22.3,2.22,2.22,0,0,0-.87.85,2.5,2.5,0,0,0,0,2.41,2.29,2.29,0,0,0,.87.85,2.48,2.48,0,0,0,1.22.3,2.51,2.51,0,0,0,1.22-.3"/><polygon class="cls-7" points="38.2 151.48 38.2 157.17 37.71 157.17 34.05 152.55 34.05 157.17 33.45 157.17 33.45 151.48 33.95 151.48 37.61 156.09 37.61 151.48 38.2 151.48"/><polygon class="cls-7" points="41.16 152 39.16 152 39.16 151.48 43.76 151.48 43.76 152 41.77 152 41.77 157.17 41.16 157.17 41.16 152"/><path class="cls-7" d="M48,155.65H44.84l-.69,1.52h-.62l2.6-5.69h.59l2.6,5.69h-.63Zm-.22-.49-1.37-3.06-1.36,3.06Z"/><polygon class="cls-7" points="51.09 152 49.09 152 49.09 151.48 53.69 151.48 53.69 152 51.69 152 51.69 157.17 51.09 157.17 51.09 152"/><polygon class="cls-7" points="55.83 152 53.84 152 53.84 151.48 58.44 151.48 58.44 152 56.44 152 56.44 157.17 55.83 157.17 55.83 152"/><path class="cls-7" d="M62.68,155.65H59.51l-.68,1.52H58.2l2.6-5.69h.59l2.6,5.69h-.63Zm-.22-.49-1.37-3.06-1.36,3.06Z"/><path class="cls-7" d="M65.8,156.84a2.76,2.76,0,0,1-1.06-1,2.91,2.91,0,0,1-.39-1.49,2.87,2.87,0,0,1,.39-1.48,2.74,2.74,0,0,1,1.07-1,3.09,3.09,0,0,1,1.53-.37,3.2,3.2,0,0,1,1.17.21,2.5,2.5,0,0,1,.91.62l-.39.38a2.25,2.25,0,0,0-1.68-.67,2.44,2.44,0,0,0-1.23.31,2.24,2.24,0,0,0-.86.84,2.35,2.35,0,0,0,.86,3.25,2.44,2.44,0,0,0,1.23.31A2.24,2.24,0,0,0,69,156l.39.38a2.45,2.45,0,0,1-.92.62,3.2,3.2,0,0,1-1.17.22,3.13,3.13,0,0,1-1.53-.38"/><rect class="cls-7" x="70.7" y="151.48" width="0.6" height="5.69"/><path class="cls-7" d="M78.89,153.25a1.3,1.3,0,0,1,.39,1,2.49,2.49,0,0,1,0,.46l-.49,2.46h-.4l.48-2.46a1.68,1.68,0,0,0,.05-.4,1,1,0,0,0-.31-.78,1.3,1.3,0,0,0-.89-.27,1.85,1.85,0,0,0-1.22.41,2,2,0,0,0-.64,1.19l-.46,2.31h-.41l.84-4.25h.4l-.16.81a1.9,1.9,0,0,1,.75-.63,2.37,2.37,0,0,1,1-.21,1.58,1.58,0,0,1,1.11.36"/><path class="cls-7" d="M85,152.92l-.85,4.25h-.4l.16-.81a2,2,0,0,1-1.73.84,1.58,1.58,0,0,1-1.11-.36,1.32,1.32,0,0,1-.38-1,1.9,1.9,0,0,1,0-.46l.48-2.46h.41l-.49,2.46a2.37,2.37,0,0,0,0,.41,1,1,0,0,0,.3.77,1.27,1.27,0,0,0,.88.27,1.76,1.76,0,0,0,1.21-.41,2.05,2.05,0,0,0,.64-1.19l.46-2.31Z"/><path class="cls-7" d="M93,153.25a1.24,1.24,0,0,1,.38,1,2.74,2.74,0,0,1,0,.48l-.5,2.46h-.41l.5-2.46a1.73,1.73,0,0,0,0-.41,1,1,0,0,0-.29-.77,1.23,1.23,0,0,0-.86-.27,1.8,1.8,0,0,0-1.16.38,1.9,1.9,0,0,0-.62,1.12l-.48,2.41h-.41l.5-2.46a2.48,2.48,0,0,0,0-.41,1,1,0,0,0-.3-.77,1.2,1.2,0,0,0-.85-.27,1.72,1.72,0,0,0-1.18.41,2,2,0,0,0-.62,1.19l-.47,2.31h-.4l.84-4.25h.4l-.16.8a1.8,1.8,0,0,1,.73-.62,2.19,2.19,0,0,1,1-.21,1.58,1.58,0,0,1,.94.25,1.19,1.19,0,0,1,.47.7,2.07,2.07,0,0,1,.79-.71,2.3,2.3,0,0,1,1.06-.24,1.52,1.52,0,0,1,1.09.36"/><path class="cls-7" d="M94.85,155.14c0,.11,0,.2,0,.26a1.38,1.38,0,0,0,.39,1.06,1.66,1.66,0,0,0,1.17.37,2.23,2.23,0,0,0,.83-.15,1.86,1.86,0,0,0,.63-.41l.19.28a1.86,1.86,0,0,1-.73.48,2.71,2.71,0,0,1-.95.17,2.06,2.06,0,0,1-1.42-.47,1.7,1.7,0,0,1-.51-1.31,2.73,2.73,0,0,1,.3-1.29,2.29,2.29,0,0,1,.83-.91,2.19,2.19,0,0,1,1.18-.33,1.82,1.82,0,0,1,1.32.47,1.72,1.72,0,0,1,.49,1.3,3.26,3.26,0,0,1,0,.48Zm.71-1.47a2,2,0,0,0-.66,1.15h3.27s0-.12,0-.21a1.31,1.31,0,0,0-.39-1,1.48,1.48,0,0,0-1-.36,1.79,1.79,0,0,0-1.19.43"/><path class="cls-7" d="M101.16,153.12a2.32,2.32,0,0,1,1.07-.23l-.07.4H102a1.72,1.72,0,0,0-1.19.43,2.31,2.31,0,0,0-.63,1.28l-.44,2.18h-.41l.85-4.25h.4l-.18.9a1.88,1.88,0,0,1,.73-.7"/><path class="cls-7" d="M102.89,156.72a1.71,1.71,0,0,1-.5-1.28,2.63,2.63,0,0,1,.31-1.3,2.31,2.31,0,0,1,.87-.91,2.28,2.28,0,0,1,1.25-.34,1.92,1.92,0,0,1,1.37.48,1.7,1.7,0,0,1,.5,1.29,2.69,2.69,0,0,1-.31,1.3,2.36,2.36,0,0,1-.86.91,2.42,2.42,0,0,1-1.26.33,1.92,1.92,0,0,1-1.37-.48m2.43-.16a2,2,0,0,0,.71-.77,2.39,2.39,0,0,0,.26-1.11,1.36,1.36,0,0,0-.4-1.05,1.54,1.54,0,0,0-1.11-.37,1.86,1.86,0,0,0-1,.28,2,2,0,0,0-.71.77,2.38,2.38,0,0,0-.26,1.1,1.36,1.36,0,0,0,.4,1.05,1.54,1.54,0,0,0,1.11.37,1.94,1.94,0,0,0,1-.27"/><polygon class="cls-7" points="113.84 152.92 111.08 157.17 110.67 157.17 109.6 152.92 110.01 152.92 110.95 156.72 113.41 152.92 113.84 152.92"/><path class="cls-7" d="M114.1,155.14c0,.11,0,.2,0,.26a1.39,1.39,0,0,0,.4,1.06,1.66,1.66,0,0,0,1.17.37,2.27,2.27,0,0,0,.83-.15,1.86,1.86,0,0,0,.63-.41l.18.28a1.82,1.82,0,0,1-.72.48,2.71,2.71,0,0,1-.95.17,2.06,2.06,0,0,1-1.42-.47,1.71,1.71,0,0,1-.52-1.31,2.62,2.62,0,0,1,.31-1.29,2.26,2.26,0,0,1,.82-.91,2.22,2.22,0,0,1,1.19-.33,1.85,1.85,0,0,1,1.32.47,1.76,1.76,0,0,1,.49,1.3,3.26,3.26,0,0,1,0,.48Zm.7-1.47a2,2,0,0,0-.65,1.15h3.27v-.21a1.31,1.31,0,0,0-.39-1,1.46,1.46,0,0,0-1-.36,1.81,1.81,0,0,0-1.19.43"/><path class="cls-7" d="M120.4,153.12a2.39,2.39,0,0,1,1.08-.23l-.07.4h-.13a1.7,1.7,0,0,0-1.19.43,2.31,2.31,0,0,0-.63,1.28l-.44,2.18h-.41l.85-4.25h.39l-.18.9a2,2,0,0,1,.73-.7"/><path class="cls-7" d="M126.68,151.14l-1.2,6h-.39l.16-.83a2.14,2.14,0,0,1-.77.63,2.25,2.25,0,0,1-1,.23,1.86,1.86,0,0,1-1.33-.48,1.68,1.68,0,0,1-.5-1.28,2.81,2.81,0,0,1,.31-1.31,2.32,2.32,0,0,1,2.09-1.24,1.94,1.94,0,0,1,1.09.29,1.44,1.44,0,0,1,.59.81l.56-2.85Zm-2.12,5.42a2,2,0,0,0,.71-.77,2.27,2.27,0,0,0,.26-1.11,1.39,1.39,0,0,0-.39-1.05,1.54,1.54,0,0,0-1.11-.37,1.86,1.86,0,0,0-1,.28,2,2,0,0,0-.71.77,2.38,2.38,0,0,0-.26,1.1,1.39,1.39,0,0,0,.39,1.05,1.57,1.57,0,0,0,1.11.37,1.94,1.94,0,0,0,1-.27"/><path class="cls-7" d="M127.53,155.14c0,.11,0,.2,0,.26a1.35,1.35,0,0,0,.4,1.06,1.63,1.63,0,0,0,1.17.37,2.21,2.21,0,0,0,.82-.15,1.86,1.86,0,0,0,.63-.41l.19.28a1.79,1.79,0,0,1-.73.48,2.67,2.67,0,0,1-.95.17,2,2,0,0,1-1.41-.47,1.67,1.67,0,0,1-.52-1.31,2.73,2.73,0,0,1,.3-1.29,2.29,2.29,0,0,1,.83-.91,2.2,2.2,0,0,1,1.19-.33,1.81,1.81,0,0,1,1.31.47,1.72,1.72,0,0,1,.49,1.3,3.26,3.26,0,0,1-.05.48Zm.71-1.47a2,2,0,0,0-.66,1.15h3.27a1.22,1.22,0,0,0,0-.21,1.31,1.31,0,0,0-.39-1,1.48,1.48,0,0,0-1-.36,1.79,1.79,0,0,0-1.19.43"/><path class="cls-7" d="M139.12,151.14l-1.21,6h-.39l.17-.83a2.23,2.23,0,0,1-.77.63,2.31,2.31,0,0,1-1,.23,1.82,1.82,0,0,1-1.33-.48,1.64,1.64,0,0,1-.5-1.28,2.7,2.7,0,0,1,.31-1.31,2.33,2.33,0,0,1,.85-.91,2.37,2.37,0,0,1,1.24-.33,2,2,0,0,1,1.09.29,1.43,1.43,0,0,1,.58.81l.57-2.85ZM137,156.56a2,2,0,0,0,.71-.77,2.39,2.39,0,0,0,.26-1.11,1.39,1.39,0,0,0-.39-1.05,1.57,1.57,0,0,0-1.11-.37,1.86,1.86,0,0,0-1,.28,2.06,2.06,0,0,0-.72.77,2.38,2.38,0,0,0-.26,1.1,1.39,1.39,0,0,0,.4,1.05,1.54,1.54,0,0,0,1.11.37,1.94,1.94,0,0,0,1-.27"/><path class="cls-7" d="M144.25,152.92l-.85,4.25H143l.16-.83a2.06,2.06,0,0,1-.77.63,2.25,2.25,0,0,1-1,.23,1.82,1.82,0,0,1-1.32-.48,1.64,1.64,0,0,1-.5-1.28,2.81,2.81,0,0,1,.3-1.31,2.43,2.43,0,0,1,.86-.91,2.36,2.36,0,0,1,1.23-.33,1.92,1.92,0,0,1,1.09.29,1.42,1.42,0,0,1,.59.8l.21-1.06Zm-1.76,3.64a2,2,0,0,0,.71-.77,2.39,2.39,0,0,0,.26-1.11,1.36,1.36,0,0,0-.4-1.05,1.54,1.54,0,0,0-1.11-.37,1.86,1.86,0,0,0-1,.28,2,2,0,0,0-.71.77,2.38,2.38,0,0,0-.26,1.1,1.36,1.36,0,0,0,.4,1.05,1.54,1.54,0,0,0,1.11.37,2,2,0,0,0,1-.27"/><path class="cls-7" d="M149,151.66a1.21,1.21,0,0,0-.33.68l-.12.58h1.36l-.07.35h-1.36l-.77,3.9h-.41l.78-3.9h-.78l.06-.35h.79l.13-.64a1.52,1.52,0,0,1,.46-.87,1.28,1.28,0,0,1,.9-.31,1.45,1.45,0,0,1,.47.08.86.86,0,0,1,.35.21l-.2.29a1,1,0,0,0-1.26,0m2.38,1.26h.4l-.84,4.25h-.41Zm.23-1.12a.29.29,0,0,1-.09-.21.37.37,0,0,1,.1-.25.36.36,0,0,1,.26-.11.29.29,0,0,1,.22.09.26.26,0,0,1,.1.21.35.35,0,0,1-.11.26.35.35,0,0,1-.26.1.29.29,0,0,1-.22-.09"/><path class="cls-7" d="M152.85,157.05a1.91,1.91,0,0,1-.71-.39l.22-.31a1.74,1.74,0,0,0,.63.36,2.59,2.59,0,0,0,.84.13,1.84,1.84,0,0,0,1-.23.73.73,0,0,0,.36-.65.48.48,0,0,0-.15-.37.9.9,0,0,0-.36-.21l-.58-.15a6.54,6.54,0,0,1-.71-.18,1.14,1.14,0,0,1-.46-.31.79.79,0,0,1-.19-.56,1.1,1.1,0,0,1,.49-.94,2.16,2.16,0,0,1,1.28-.35,2.9,2.9,0,0,1,.79.11,1.52,1.52,0,0,1,.61.31l-.18.31a1.9,1.9,0,0,0-.57-.28,2.59,2.59,0,0,0-.68-.09,1.75,1.75,0,0,0-1,.24.76.76,0,0,0-.36.65.49.49,0,0,0,.15.38.85.85,0,0,0,.37.22,5,5,0,0,0,.59.15,6,6,0,0,1,.71.18,1.37,1.37,0,0,1,.45.3.81.81,0,0,1,.19.55,1.09,1.09,0,0,1-.5.94,2.28,2.28,0,0,1-1.33.34,2.94,2.94,0,0,1-.94-.15"/><path class="cls-7" d="M156.73,157.05a1.86,1.86,0,0,1-.7-.39l.22-.31a1.74,1.74,0,0,0,.63.36,2.53,2.53,0,0,0,.83.13,1.84,1.84,0,0,0,1-.23.73.73,0,0,0,.36-.65.48.48,0,0,0-.14-.37,1.07,1.07,0,0,0-.36-.21l-.59-.15a7.21,7.21,0,0,1-.71-.18,1.21,1.21,0,0,1-.46-.31.84.84,0,0,1-.18-.56,1.12,1.12,0,0,1,.48-.94,2.17,2.17,0,0,1,1.29-.35,3,3,0,0,1,.79.11,1.59,1.59,0,0,1,.61.31l-.19.31a2,2,0,0,0-.56-.28,2.59,2.59,0,0,0-.68-.09,1.73,1.73,0,0,0-1,.24.76.76,0,0,0-.36.65.48.48,0,0,0,.14.38.91.91,0,0,0,.37.22,5.19,5.19,0,0,0,.6.15,5.75,5.75,0,0,1,.7.18,1.19,1.19,0,0,1,.45.3.77.77,0,0,1,.19.55,1.07,1.07,0,0,1-.5.94,2.27,2.27,0,0,1-1.32.34,3,3,0,0,1-1-.15"/><path class="cls-7" d="M160.85,156.72a1.68,1.68,0,0,1-.51-1.28,2.63,2.63,0,0,1,.31-1.3,2.31,2.31,0,0,1,.87-.91,2.28,2.28,0,0,1,1.25-.34,1.92,1.92,0,0,1,1.37.48,1.67,1.67,0,0,1,.5,1.29,2.69,2.69,0,0,1-.31,1.3,2.36,2.36,0,0,1-.86.91,2.42,2.42,0,0,1-1.26.33,1.88,1.88,0,0,1-1.36-.48m2.42-.16a2,2,0,0,0,.71-.77,2.39,2.39,0,0,0,.26-1.11,1.36,1.36,0,0,0-.4-1.05,1.53,1.53,0,0,0-1.1-.37,1.86,1.86,0,0,0-1,.28,2,2,0,0,0-.72.77,2.38,2.38,0,0,0-.26,1.1,1.36,1.36,0,0,0,.4,1.05,1.54,1.54,0,0,0,1.11.37,1.94,1.94,0,0,0,1-.27"/><path class="cls-7" d="M172.17,154.73a1.4,1.4,0,0,1,.22.79,1.47,1.47,0,0,1-.3.92,1.91,1.91,0,0,1-.84.61,3.54,3.54,0,0,1-1.26.22,3.46,3.46,0,0,1-1.26-.22,1.91,1.91,0,0,1-.84-.61,1.46,1.46,0,0,1-.29-.92,1.4,1.4,0,0,1,.22-.79,1.58,1.58,0,0,1,.64-.55,1.38,1.38,0,0,1-.49-.5,1.33,1.33,0,0,1-.17-.67,1.39,1.39,0,0,1,.28-.87,1.74,1.74,0,0,1,.77-.56,3.09,3.09,0,0,1,1.14-.2,3.19,3.19,0,0,1,1.15.2,1.74,1.74,0,0,1,.77.56,1.39,1.39,0,0,1,.28.87,1.33,1.33,0,0,1-.17.67,1.41,1.41,0,0,1-.5.5,1.61,1.61,0,0,1,.65.55m-1.4,1.34a.7.7,0,0,0,.29-.59.73.73,0,0,0-.29-.6,1.49,1.49,0,0,0-1.56,0,.78.78,0,0,0,0,1.2,1.46,1.46,0,0,0,1.56,0m-1.42-3.53a.63.63,0,0,0-.24.52.62.62,0,0,0,.23.51,1,1,0,0,0,.65.19,1,1,0,0,0,.65-.19.6.6,0,0,0,.24-.51.63.63,0,0,0-.24-.52,1,1,0,0,0-.65-.19,1,1,0,0,0-.64.19"/><path class="cls-7" d="M174.17,156.92a2.28,2.28,0,0,1-.86-1,4.06,4.06,0,0,1,0-3.16,2.26,2.26,0,0,1,.86-1,2.33,2.33,0,0,1,3.39,1,4.18,4.18,0,0,1,0,3.16,2.37,2.37,0,0,1-.87,1,2.44,2.44,0,0,1-2.52,0m2.08-1.22a2.49,2.49,0,0,0,.29-1.38,2.53,2.53,0,0,0-.29-1.38,1,1,0,0,0-1.63,0,2.53,2.53,0,0,0-.29,1.38,2.49,2.49,0,0,0,.29,1.38,1,1,0,0,0,1.63,0"/><path class="cls-7" d="M179.69,156.92a2.37,2.37,0,0,1-.87-1,4.18,4.18,0,0,1,0-3.16,2.38,2.38,0,0,1,3.39-1,2.26,2.26,0,0,1,.86,1,4.06,4.06,0,0,1,0,3.16,2.28,2.28,0,0,1-.86,1,2.44,2.44,0,0,1-2.52,0m2.08-1.22a2.58,2.58,0,0,0,.29-1.38,2.63,2.63,0,0,0-.29-1.38,1,1,0,0,0-1.63,0,2.52,2.52,0,0,0-.3,1.38,2.48,2.48,0,0,0,.3,1.38,1,1,0,0,0,1.63,0"/><path class="cls-7" d="M190.2,152.11a3,3,0,0,1,.67,2.09,3.54,3.54,0,0,1-.36,1.66,2.46,2.46,0,0,1-1,1,3.1,3.1,0,0,1-1.52.35,3.57,3.57,0,0,1-.87-.1,2.16,2.16,0,0,1-.71-.29l.49-1a1.85,1.85,0,0,0,1.07.28,1.51,1.51,0,0,0,1.14-.43,1.77,1.77,0,0,0,.46-1.23,1.9,1.9,0,0,1-1.42.52,2.32,2.32,0,0,1-1-.22,1.71,1.71,0,0,1-.7-.63,1.59,1.59,0,0,1-.27-.93,1.78,1.78,0,0,1,.29-1,1.94,1.94,0,0,1,.78-.66,2.56,2.56,0,0,1,1.09-.23,2.4,2.4,0,0,1,1.87.73m-1.07,1.71a.78.78,0,0,0,.27-.61.8.8,0,0,0-.26-.61,1.19,1.19,0,0,0-1.42,0,.87.87,0,0,0,0,1.24,1,1,0,0,0,.71.23,1,1,0,0,0,.7-.24"/><path class="cls-7" d="M196.05,154.73a1.49,1.49,0,0,1,.22.79,1.47,1.47,0,0,1-.3.92,1.89,1.89,0,0,1-.85.61,3.69,3.69,0,0,1-2.51,0,1.91,1.91,0,0,1-.84-.61,1.47,1.47,0,0,1-.3-.92,1.41,1.41,0,0,1,.23-.79,1.58,1.58,0,0,1,.64-.55,1.3,1.3,0,0,1-.49-.5,1.24,1.24,0,0,1-.17-.67,1.45,1.45,0,0,1,.27-.87,1.77,1.77,0,0,1,.78-.56,3.08,3.08,0,0,1,1.13-.2,3.11,3.11,0,0,1,1.15.2,1.71,1.71,0,0,1,.78.56,1.46,1.46,0,0,1,.28.87,1.33,1.33,0,0,1-.17.67,1.41,1.41,0,0,1-.5.5,1.61,1.61,0,0,1,.65.55m-1.4,1.34a.7.7,0,0,0,.29-.59.73.73,0,0,0-.29-.6,1.32,1.32,0,0,0-.79-.22,1.28,1.28,0,0,0-.77.22.78.78,0,0,0,0,1.2,1.21,1.21,0,0,0,.77.22,1.26,1.26,0,0,0,.79-.23m-1.42-3.53a.63.63,0,0,0-.24.52.59.59,0,0,0,.23.51,1,1,0,0,0,.64.19,1,1,0,0,0,.65-.19.58.58,0,0,0,.25-.51.61.61,0,0,0-.25-.52,1,1,0,0,0-.65-.19,1,1,0,0,0-.63.19"/><polygon class="cls-7" points="204.38 155.97 203.46 155.97 203.46 157.17 202.17 157.17 202.17 155.97 199.11 155.97 199.11 155.09 201.79 151.48 203.17 151.48 200.68 154.9 202.21 154.9 202.21 153.84 203.46 153.84 203.46 154.9 204.38 154.9 204.38 155.97"/><polygon class="cls-7" points="209.98 155.97 209.06 155.97 209.06 157.17 207.77 157.17 207.77 155.97 204.71 155.97 204.71 155.09 207.39 151.48 208.77 151.48 206.28 154.9 207.81 154.9 207.81 153.84 209.06 153.84 209.06 154.9 209.98 154.9 209.98 155.97"/><path class="cls-7" d="M216.4,154.1a1.57,1.57,0,0,1,.57,1.28,1.73,1.73,0,0,1-1.05,1.63,3,3,0,0,1-1.31.26,4.74,4.74,0,0,1-1.19-.16,3.28,3.28,0,0,1-1-.45l.52-1a2.46,2.46,0,0,0,.74.38,2.82,2.82,0,0,0,.87.13,1.36,1.36,0,0,0,.78-.2.62.62,0,0,0,.29-.54.61.61,0,0,0-.3-.55,2,2,0,0,0-1-.19h-1.45l.29-3.2h3.47v1.05h-2.37l-.09,1.09h.46a2.74,2.74,0,0,1,1.78.48"/><path class="cls-7" d="M221.19,154.1a1.55,1.55,0,0,1,.58,1.28,1.83,1.83,0,0,1-.26,1,1.87,1.87,0,0,1-.8.68,3,3,0,0,1-1.31.26,4.72,4.72,0,0,1-1.18-.16,3.23,3.23,0,0,1-1-.45l.52-1a2.65,2.65,0,0,0,.75.38,2.82,2.82,0,0,0,.87.13,1.36,1.36,0,0,0,.78-.2.66.66,0,0,0,0-1.09,2,2,0,0,0-1-.19h-1.46l.3-3.2h3.47v1.05H219l-.09,1.09h.47a2.71,2.71,0,0,1,1.77.48"/><path class="cls-8" d="M243.1,151.56a5.2,5.2,0,0,0-8.18,6.27l-.73,2.69,2.75-.72a5.11,5.11,0,0,0,2.48.63h0a5.2,5.2,0,0,0,5.19-5.19,5.13,5.13,0,0,0-1.52-3.68m-3.67,8h0a4.23,4.23,0,0,1-2.19-.61l-.16-.09-1.64.43.44-1.6-.1-.16a4.25,4.25,0,0,1-.66-2.3,4.33,4.33,0,0,1,4.32-4.32,4.34,4.34,0,0,1,4.32,4.33,4.33,4.33,0,0,1-4.32,4.32m2.37-3.24c-.13-.06-.77-.38-.89-.42s-.21-.07-.29.06-.34.42-.41.51-.16.1-.29,0a3.48,3.48,0,0,1-1-.64,3.55,3.55,0,0,1-.72-.9c-.08-.13,0-.19.05-.26a3.67,3.67,0,0,0,.33-.45.26.26,0,0,0,0-.23c0-.06-.29-.7-.4-1s-.21-.22-.29-.22h-.25a.48.48,0,0,0-.35.16,1.47,1.47,0,0,0-.45,1.09,2.48,2.48,0,0,0,.53,1.34,5.67,5.67,0,0,0,2.21,2,6.37,6.37,0,0,0,.75.28,1.93,1.93,0,0,0,.81.05,1.37,1.37,0,0,0,.88-.62,1.12,1.12,0,0,0,.08-.62.73.73,0,0,0-.25-.15"/><path class="cls-7" d="M251.77,155.12a1.51,1.51,0,0,1,.4,1.07,1.75,1.75,0,0,1-.26.92,1.82,1.82,0,0,1-.79.67,3,3,0,0,1-1.31.25,4.3,4.3,0,0,1-1.18-.16,2.82,2.82,0,0,1-1-.45l.52-1a2.21,2.21,0,0,0,.75.38,2.83,2.83,0,0,0,.87.14,1.36,1.36,0,0,0,.78-.2.6.6,0,0,0,.29-.54c0-.46-.36-.7-1.07-.7h-.6v-.86l1.17-1.33h-2.42v-1.06h4v.86l-1.28,1.46a1.87,1.87,0,0,1,1.14.56"/><polygon class="cls-7" points="257.99 156.74 257.06 156.74 257.06 157.93 255.78 157.93 255.78 156.74 252.72 156.74 252.72 155.85 255.4 152.24 256.78 152.24 254.29 155.67 255.82 155.67 255.82 154.6 257.06 154.6 257.06 155.67 257.99 155.67 257.99 156.74"/><path class="cls-7" d="M262.11,154.58a1.8,1.8,0,0,1,.71.63,1.66,1.66,0,0,1,.26.93,1.78,1.78,0,0,1-.29,1,1.91,1.91,0,0,1-.77.66,2.64,2.64,0,0,1-1.1.23,2.42,2.42,0,0,1-1.87-.73,3,3,0,0,1-.67-2.09,3.45,3.45,0,0,1,.37-1.66,2.46,2.46,0,0,1,1-1.05,3.06,3.06,0,0,1,1.51-.35,3.6,3.6,0,0,1,.88.1,2.4,2.4,0,0,1,.71.29l-.49,1a1.87,1.87,0,0,0-1.07-.28,1.54,1.54,0,0,0-1.14.42,1.77,1.77,0,0,0-.46,1.23,1.91,1.91,0,0,1,1.41-.51,2.32,2.32,0,0,1,1,.22m-.57,2.24a.87.87,0,0,0,0-1.24,1,1,0,0,0-.71-.23,1,1,0,0,0-.7.24.75.75,0,0,0-.28.61.78.78,0,0,0,.27.61,1.19,1.19,0,0,0,1.42,0"/><path class="cls-7" d="M270.4,155.49a1.43,1.43,0,0,1,.22.79,1.5,1.5,0,0,1-.3.93,2,2,0,0,1-.85.61,3.86,3.86,0,0,1-2.51,0,2,2,0,0,1-.84-.61,1.5,1.5,0,0,1-.3-.93,1.43,1.43,0,0,1,.23-.79,1.66,1.66,0,0,1,.64-.55,1.28,1.28,0,0,1-.49-.49,1.37,1.37,0,0,1-.17-.68,1.4,1.4,0,0,1,.27-.86,1.83,1.83,0,0,1,.78-.56,2.88,2.88,0,0,1,1.13-.2,2.92,2.92,0,0,1,1.15.2,1.71,1.71,0,0,1,.78.56,1.41,1.41,0,0,1,.28.86,1.29,1.29,0,0,1-.67,1.17,1.69,1.69,0,0,1,.65.55m-1.4,1.35a.73.73,0,0,0,.29-.6.71.71,0,0,0-.29-.59,1.24,1.24,0,0,0-.79-.22,1.21,1.21,0,0,0-.77.22.77.77,0,0,0,0,1.19,1.21,1.21,0,0,0,.77.22,1.24,1.24,0,0,0,.79-.22m-1.42-3.54a.65.65,0,0,0-.24.53.62.62,0,0,0,.23.51,1,1,0,0,0,.64.19,1,1,0,0,0,.65-.19.58.58,0,0,0,.25-.51.63.63,0,0,0-.25-.53,1,1,0,0,0-.65-.19,1,1,0,0,0-.63.19"/><path class="cls-7" d="M275,154.58a1.8,1.8,0,0,1,.71.63,1.66,1.66,0,0,1,.26.93,1.78,1.78,0,0,1-.29,1,1.91,1.91,0,0,1-.77.66,2.59,2.59,0,0,1-1.09.23,2.4,2.4,0,0,1-1.87-.73,3,3,0,0,1-.68-2.09,3.45,3.45,0,0,1,.37-1.66,2.46,2.46,0,0,1,1-1.05,3.06,3.06,0,0,1,1.51-.35,3.6,3.6,0,0,1,.88.1,2.4,2.4,0,0,1,.71.29l-.49,1a1.87,1.87,0,0,0-1.07-.28,1.54,1.54,0,0,0-1.14.42,1.82,1.82,0,0,0-.46,1.23,1.91,1.91,0,0,1,1.41-.51,2.32,2.32,0,0,1,1,.22m-.57,2.24a.87.87,0,0,0,0-1.24,1,1,0,0,0-.7-.23,1,1,0,0,0-.71.24.75.75,0,0,0-.28.61.78.78,0,0,0,.27.61,1.19,1.19,0,0,0,1.42,0"/><path class="cls-7" d="M277.58,157.68a2.34,2.34,0,0,1-.87-1,4.18,4.18,0,0,1,0-3.16,2.34,2.34,0,0,1,.87-1,2.44,2.44,0,0,1,2.52,0,2.32,2.32,0,0,1,.86,1,4.06,4.06,0,0,1,0,3.16,2.37,2.37,0,0,1-3.38,1m2.07-1.21a3.32,3.32,0,0,0,0-2.76.92.92,0,0,0-.81-.45.93.93,0,0,0-.81.45,3.32,3.32,0,0,0,0,2.76.93.93,0,0,0,.81.45.92.92,0,0,0,.81-.45"/><path class="cls-7" d="M285.64,154.86a1.57,1.57,0,0,1,.58,1.28,1.81,1.81,0,0,1-.26,1,1.83,1.83,0,0,1-.79.68,3.07,3.07,0,0,1-1.32.26,4.3,4.3,0,0,1-1.18-.16,2.82,2.82,0,0,1-1-.45l.52-1a2.41,2.41,0,0,0,.75.38,2.82,2.82,0,0,0,.87.13,1.36,1.36,0,0,0,.78-.19.67.67,0,0,0,0-1.1,2.12,2.12,0,0,0-1-.18H282.1l.3-3.21h3.47v1.06h-2.38l-.08,1.08h.46a2.71,2.71,0,0,1,1.77.48"/><polygon class="cls-7" points="291.96 156.74 291.04 156.74 291.04 157.93 289.75 157.93 289.75 156.74 286.69 156.74 286.69 155.85 289.37 152.24 290.75 152.24 288.27 155.67 289.79 155.67 289.79 154.6 291.04 154.6 291.04 155.67 291.96 155.67 291.96 156.74"/><polygon class="cls-7" points="296.47 152.24 296.47 153.1 294.35 157.93 292.92 157.93 294.96 153.32 293.08 153.32 293.08 154.24 291.91 154.24 291.91 152.24 296.47 152.24"/><path class="cls-7" d="M301.45,155.49a1.43,1.43,0,0,1,.23.79,1.5,1.5,0,0,1-.3.93,2,2,0,0,1-.85.61,3.89,3.89,0,0,1-2.52,0,2,2,0,0,1-.83-.61,1.56,1.56,0,0,1-.08-1.72,1.73,1.73,0,0,1,.64-.55,1.44,1.44,0,0,1-.49-.49,1.37,1.37,0,0,1-.17-.68,1.41,1.41,0,0,1,.28-.86,1.74,1.74,0,0,1,.77-.56,2.9,2.9,0,0,1,1.14-.2,3,3,0,0,1,1.15.2,1.83,1.83,0,0,1,.78.56,1.4,1.4,0,0,1,.27.86,1.27,1.27,0,0,1-.17.68,1.35,1.35,0,0,1-.49.49,1.66,1.66,0,0,1,.64.55m-1.4,1.35a.7.7,0,0,0,.29-.6.69.69,0,0,0-.29-.59,1.23,1.23,0,0,0-.78-.22,1.2,1.2,0,0,0-.77.22.71.71,0,0,0-.29.59.7.7,0,0,0,.29.6,1.2,1.2,0,0,0,.77.22,1.23,1.23,0,0,0,.78-.22m-1.42-3.54a.65.65,0,0,0-.24.53.6.6,0,0,0,.24.51,1,1,0,0,0,.64.19,1,1,0,0,0,.65-.19.6.6,0,0,0,.24-.51.65.65,0,0,0-.24-.53,1.07,1.07,0,0,0-.65-.19,1,1,0,0,0-.64.19"/><path class="cls-7" d="M111.7,105.81h-4.52l-.84,2.08h-3.09L108,97.2h3l4.73,10.69h-3.14Zm-.89-2.23-1.37-3.42-1.38,3.42Z"/><polygon class="cls-7" points="118.28 99.59 115 99.59 115 97.2 124.57 97.2 124.57 99.59 121.31 99.59 121.31 107.89 118.28 107.89 118.28 99.59"/><polygon class="cls-7" points="128.13 99.59 124.85 99.59 124.85 97.2 134.42 97.2 134.42 99.59 131.16 99.59 131.16 107.89 128.13 107.89 128.13 99.59"/><rect class="cls-7" x="135.55" y="97.2" width="3.02" height="10.69"/><polygon class="cls-7" points="151.54 97.2 146.96 107.89 143.98 107.89 139.42 97.2 142.69 97.2 145.59 104.16 148.55 97.2 151.54 97.2"/><path class="cls-7" d="M159,105.81h-4.52l-.84,2.08h-3.09l4.72-10.69h3L163,107.89h-3.14Zm-.89-2.23-1.37-3.42-1.38,3.42Z"/><path class="cls-7" d="M175.41,105.81h-4.52l-.84,2.08H167l4.72-10.69h3l4.73,10.69h-3.15Zm-.88-2.23-1.38-3.42-1.37,3.42Z"/><polygon class="cls-7" points="190.43 97.2 190.43 107.89 187.94 107.89 183.22 102.19 183.22 107.89 180.26 107.89 180.26 97.2 182.75 97.2 187.47 102.89 187.47 97.2 190.43 97.2"/><path class="cls-7" d="M194.88,107.39a5.27,5.27,0,0,1-2.1-2,5.5,5.5,0,0,1,2.1-7.72,6.38,6.38,0,0,1,3-.71,6.61,6.61,0,0,1,2.64.52,5.16,5.16,0,0,1,2,1.5l-1.92,1.74a3.14,3.14,0,0,0-2.52-1.25,3,3,0,0,0-1.55.38,2.63,2.63,0,0,0-1.06,1.08,3.28,3.28,0,0,0-.37,1.59,3.34,3.34,0,0,0,.37,1.6,2.66,2.66,0,0,0,1.06,1.07,3.05,3.05,0,0,0,1.55.39,3.15,3.15,0,0,0,2.52-1.26l1.92,1.74a5,5,0,0,1-2,1.5,6.45,6.45,0,0,1-2.64.52,6.38,6.38,0,0,1-3-.71"/><polygon class="cls-7" points="214.01 97.2 214.01 107.89 210.98 107.89 210.98 103.72 206.86 103.72 206.86 107.89 203.84 107.89 203.84 97.2 206.86 97.2 206.86 101.21 210.98 101.21 210.98 97.2 214.01 97.2"/><polygon class="cls-7" points="224.73 105.55 224.73 107.89 216.15 107.89 216.15 97.19 224.53 97.19 224.53 99.53 219.14 99.53 219.14 101.33 223.89 101.33 223.89 103.59 219.14 103.59 219.14 105.55 224.73 105.55"/><polygon class="cls-7" points="230.85 97.2 233.88 97.2 233.88 105.49 238.98 105.49 238.98 107.89 230.85 107.89 230.85 97.2"/><path class="cls-7" d="M247.45,105.81h-4.52l-.84,2.08H239l4.72-10.69h3l4.73,10.69H248.3Zm-.88-2.23-1.38-3.42-1.37,3.42Z"/><polygon class="cls-7" points="259.76 99.53 259.76 101.89 264.48 101.89 264.48 104.22 259.76 104.22 259.76 107.89 256.74 107.89 256.74 97.2 265.12 97.2 265.12 99.53 259.76 99.53"/><path class="cls-7" d="M268.8,107.38a5.32,5.32,0,0,1-2.9-4.84,5.39,5.39,0,0,1,.77-2.85,5.45,5.45,0,0,1,2.13-2,6.8,6.8,0,0,1,6.09,0,5.46,5.46,0,0,1,0,9.68,6.8,6.8,0,0,1-6.09,0m4.51-2.17a2.75,2.75,0,0,0,1-1.07,3.56,3.56,0,0,0,0-3.2,2.75,2.75,0,0,0-1-1.07,2.83,2.83,0,0,0-1.47-.38,2.79,2.79,0,0,0-1.46.38,2.68,2.68,0,0,0-1,1.07,3.56,3.56,0,0,0,0,3.2,2.68,2.68,0,0,0,1,1.07,2.8,2.8,0,0,0,1.46.39,2.84,2.84,0,0,0,1.47-.39"/><path class="cls-7" d="M284.05,105.05H282.4v2.84h-3V97.2h4.89a6.09,6.09,0,0,1,2.52.48,3.61,3.61,0,0,1,2.23,3.47,3.57,3.57,0,0,1-2.09,3.38l2.3,3.36H286Zm1.43-5.06a2.09,2.09,0,0,0-1.4-.41H282.4v3.13h1.68a2.09,2.09,0,0,0,1.4-.41,1.42,1.42,0,0,0,.48-1.15,1.44,1.44,0,0,0-.48-1.16"/><polygon class="cls-7" points="300.85 97.2 300.85 107.89 298.36 107.89 293.64 102.19 293.64 107.89 290.68 107.89 290.68 97.2 293.16 97.2 297.88 102.89 297.88 97.2 300.85 97.2"/><rect class="cls-7" x="302.98" y="97.2" width="3.02" height="10.69"/><polygon class="cls-7" points="310.44 99.59 307.15 99.59 307.15 97.2 316.73 97.2 316.73 99.59 313.46 99.59 313.46 107.89 310.44 107.89 310.44 99.59"/><path class="cls-7" d="M318.92,106.8a4.92,4.92,0,0,1-1.32-3.68V97.2h3V103c0,1.71.68,2.57,2,2.57s2-.86,2-2.57V97.2h3v5.92a4.92,4.92,0,0,1-1.32,3.68,5.93,5.93,0,0,1-7.41,0"/><path class="cls-7" d="M334.37,105.05h-1.65v2.84h-3V97.2h4.88a6.09,6.09,0,0,1,2.52.48,3.61,3.61,0,0,1,2.23,3.47,3.57,3.57,0,0,1-2.09,3.38l2.31,3.36h-3.24ZM335.8,100a2.09,2.09,0,0,0-1.4-.41h-1.68v3.13h1.68a2.09,2.09,0,0,0,1.4-.41,1.42,1.42,0,0,0,.48-1.15,1.44,1.44,0,0,0-.48-1.16"/><path class="cls-7" d="M348.16,105.81h-4.52l-.84,2.08h-3.09l4.72-10.69h3l4.74,10.69H349Zm-.89-2.23-1.37-3.42-1.38,3.42Z"/><path class="cls-7" d="M364.61,102.31h2.67v4.43a6.77,6.77,0,0,1-2.11,1,8.47,8.47,0,0,1-2.38.35,6.38,6.38,0,0,1-3-.71,5.23,5.23,0,0,1-2.11-2,5.48,5.48,0,0,1,2.12-7.72,6.58,6.58,0,0,1,3.07-.71,6.76,6.76,0,0,1,2.69.51,5.07,5.07,0,0,1,2,1.45l-1.92,1.74a3.37,3.37,0,0,0-2.6-1.19,2.87,2.87,0,0,0-3.05,3.05,3.27,3.27,0,0,0,.38,1.58,2.74,2.74,0,0,0,1.07,1.09,3.13,3.13,0,0,0,1.57.39,3.81,3.81,0,0,0,1.64-.36Z"/><path class="cls-7" d="M376.37,105.81h-4.52l-.84,2.08h-3.09l4.72-10.69h3l4.73,10.69h-3.14Zm-.89-2.23-1.37-3.42-1.38,3.42Z"/><path class="cls-7" d="M382.45,107.78a6,6,0,0,1-2-.86l1-2.23a6.59,6.59,0,0,0,1.67.77,6.43,6.43,0,0,0,1.86.29q1.74,0,1.74-.87a.71.71,0,0,0-.49-.68,9,9,0,0,0-1.6-.47,14.8,14.8,0,0,1-2-.56,3.3,3.3,0,0,1-1.39-1,2.62,2.62,0,0,1-.58-1.77,3.08,3.08,0,0,1,.54-1.77,3.62,3.62,0,0,1,1.59-1.24,6.52,6.52,0,0,1,2.61-.46,9.16,9.16,0,0,1,2.08.24,6.61,6.61,0,0,1,1.8.69l-.93,2.25a6.25,6.25,0,0,0-3-.83,2.44,2.44,0,0,0-1.31.27.79.79,0,0,0-.41.7.69.69,0,0,0,.49.64,8.75,8.75,0,0,0,1.57.44,14,14,0,0,1,2,.56,3.47,3.47,0,0,1,1.39.94,2.57,2.57,0,0,1,.59,1.77,3.05,3.05,0,0,1-.53,1.74,3.68,3.68,0,0,1-1.61,1.24,6.48,6.48,0,0,1-2.59.47,10,10,0,0,1-2.52-.32"/><path class="cls-7" d="M119.16,42.21h-4.77v8.21h-8.73V19.55h14.11a17.54,17.54,0,0,1,7.28,1.39,10.69,10.69,0,0,1,4.76,4A10.86,10.86,0,0,1,133.49,31a10.32,10.32,0,0,1-6,9.75l6.66,9.7h-9.35Zm4.14-14.59a6,6,0,0,0-4-1.19h-4.86v9h4.86a6.08,6.08,0,0,0,4-1.17A4.15,4.15,0,0,0,124.67,31a4.21,4.21,0,0,0-1.37-3.35"/><path class="cls-7" d="M159,44.42H145.92l-2.42,6h-8.91l13.63-30.87h8.6l13.67,30.87H161.4ZM156.42,38l-4-9.88-4,9.88Z"/><path class="cls-7" d="M173,19.55h14.59a20.52,20.52,0,0,1,9,1.89,14.36,14.36,0,0,1,6.08,5.38A15.2,15.2,0,0,1,204.79,35a15.15,15.15,0,0,1-2.16,8.16,14.29,14.29,0,0,1-6.08,5.38,20.52,20.52,0,0,1-9,1.9H173Zm14.24,23.9a8.93,8.93,0,0,0,6.37-2.25A8.11,8.11,0,0,0,196,35a8.12,8.12,0,0,0-2.4-6.22,8.93,8.93,0,0,0-6.37-2.25h-5.51V43.45Z"/><path class="cls-7" d="M209.38,19.55H224a20.48,20.48,0,0,1,9,1.89,14.33,14.33,0,0,1,6.09,5.38A15.2,15.2,0,0,1,241.22,35a15.15,15.15,0,0,1-2.16,8.16A14.26,14.26,0,0,1,233,48.52a20.48,20.48,0,0,1-9,1.9h-14.6Zm14.24,23.9A9,9,0,0,0,230,41.2,8.11,8.11,0,0,0,232.4,35a8.12,8.12,0,0,0-2.4-6.22,9,9,0,0,0-6.38-2.25h-5.51V43.45Z"/><path class="cls-7" d="M252.57,49a15.42,15.42,0,0,1-8.35-14,15.45,15.45,0,0,1,8.35-14,19.74,19.74,0,0,1,17.6,0,15.78,15.78,0,0,1,0,28,19.74,19.74,0,0,1-17.6,0m13-6.26a7.82,7.82,0,0,0,3-3.11A9.36,9.36,0,0,0,269.71,35a9.39,9.39,0,0,0-1.11-4.61,8,8,0,0,0-3-3.11,8.68,8.68,0,0,0-8.46,0,8,8,0,0,0-3,3.11A9.38,9.38,0,0,0,253,35a9.36,9.36,0,0,0,1.1,4.61,7.82,7.82,0,0,0,3,3.11,8.68,8.68,0,0,0,8.46,0"/><path class="cls-7" d="M304.5,20.94a10.48,10.48,0,0,1,6.44,10,10.42,10.42,0,0,1-6.44,10,17.71,17.71,0,0,1-7.28,1.39h-5.38v8.07h-8.73V19.55h14.11a17.54,17.54,0,0,1,7.28,1.39M300.75,34.3A4.15,4.15,0,0,0,302.12,31a4.21,4.21,0,0,0-1.37-3.35,6,6,0,0,0-4.06-1.19h-4.85v9h4.85a6.09,6.09,0,0,0,4.06-1.17"/><path class="cls-7" d="M336.56,20.94A10.48,10.48,0,0,1,343,31a10.42,10.42,0,0,1-6.44,10,17.71,17.71,0,0,1-7.28,1.39H323.9v8.07h-8.73V19.55h14.11a17.54,17.54,0,0,1,7.28,1.39M332.81,34.3A4.15,4.15,0,0,0,334.18,31a4.21,4.21,0,0,0-1.37-3.35,6,6,0,0,0-4.06-1.19H323.9v9h4.85a6.09,6.09,0,0,0,4.06-1.17"/><rect class="cls-7" x="347.23" y="19.55" width="8.73" height="30.87"/><path class="cls-7" d="M382.86,44.42H369.81l-2.43,6h-8.91L372.1,19.55h8.6l13.67,30.87h-9.08ZM380.3,38l-4-9.88-4,9.88Z"/><rect class="cls-7" x="105.66" y="58.81" width="8.73" height="30.87"/><polygon class="cls-7" points="120.61 58.81 129.34 58.81 129.34 82.75 144.07 82.75 144.07 89.68 120.61 89.68 120.61 58.81"/><path class="cls-7" d="M173.84,81.48h-4.77v8.2h-8.73V58.81h14.11a17.54,17.54,0,0,1,7.28,1.39,10.69,10.69,0,0,1,4.76,4,10.86,10.86,0,0,1,1.68,6.06,10.32,10.32,0,0,1-6,9.75l6.66,9.7h-9.35ZM178,66.88a6,6,0,0,0-4-1.19h-4.86v9h4.86a6.08,6.08,0,0,0,4-1.17,4.15,4.15,0,0,0,1.37-3.33A4.21,4.21,0,0,0,178,66.88"/><rect class="cls-7" x="192.98" y="58.81" width="8.73" height="30.87"/><path class="cls-7" d="M211.5,89.37a17.9,17.9,0,0,1-5.74-2.47l2.87-6.44a19.4,19.4,0,0,0,10.19,3c3.35,0,5-.83,5-2.51a2.09,2.09,0,0,0-1.43-2,26,26,0,0,0-4.61-1.35A43.17,43.17,0,0,1,212,76.07a9.72,9.72,0,0,1-4-2.75,7.45,7.45,0,0,1-1.68-5.12,8.84,8.84,0,0,1,1.55-5.09,10.28,10.28,0,0,1,4.6-3.59A18.85,18.85,0,0,1,220,58.19a26.3,26.3,0,0,1,6,.69,18.23,18.23,0,0,1,5.2,2l-2.69,6.48A18,18,0,0,0,219.92,65a7.08,7.08,0,0,0-3.79.78,2.29,2.29,0,0,0-1.19,2,2,2,0,0,0,1.41,1.85,24.6,24.6,0,0,0,4.54,1.28,42.93,42.93,0,0,1,5.84,1.61,10.17,10.17,0,0,1,4,2.74,7.25,7.25,0,0,1,1.7,5.09,8.69,8.69,0,0,1-1.54,5A10.53,10.53,0,0,1,226.27,89a18.69,18.69,0,0,1-7.5,1.35,28.36,28.36,0,0,1-7.27-.93"/><path class="cls-7" d="M257.84,60.2a10.78,10.78,0,0,1,4.77,4,10.93,10.93,0,0,1,1.67,6.06,10.38,10.38,0,0,1-6.44,10,17.53,17.53,0,0,1-7.27,1.39h-5.38v8.07h-8.74V58.81h14.12a17.53,17.53,0,0,1,7.27,1.39m-3.75,13.36a4.15,4.15,0,0,0,1.37-3.33,4.21,4.21,0,0,0-1.37-3.35A6,6,0,0,0,250,65.69h-4.85v9H250a6.08,6.08,0,0,0,4.05-1.17"/><path class="cls-7" d="M287.65,83.68h-13l-2.43,6h-8.9l13.62-30.87h8.6l13.67,30.87h-9.08Zm-2.56-6.44-4-9.88-4,9.88Z"/><path class="cls-7" d="M315.12,81.48h-4.76v8.2h-8.73V58.81h14.11A17.54,17.54,0,0,1,323,60.2a11.21,11.21,0,0,1,4.87,15.87A10.57,10.57,0,0,1,323.42,80l6.65,9.7h-9.34Zm4.15-14.6a6,6,0,0,0-4.06-1.19h-4.85v9h4.85a6.09,6.09,0,0,0,4.06-1.17,4.15,4.15,0,0,0,1.37-3.33,4.21,4.21,0,0,0-1.37-3.35"/><polygon class="cls-7" points="362.13 89.68 362.04 73.32 354.11 86.64 350.23 86.64 342.33 73.76 342.33 89.68 334.26 89.68 334.26 58.81 341.45 58.81 352.3 76.63 362.88 58.81 370.07 58.81 370.16 89.68 362.13 89.68"/><rect class="cls-7" x="376.33" y="58.81" width="8.73" height="30.87"/><path class="cls-7" d="M398.05,88.22a15.78,15.78,0,0,1,0-27.95,19.63,19.63,0,0,1,17.59,0,15.78,15.78,0,0,1,0,27.95,19.63,19.63,0,0,1-17.59,0m13-6.26a8,8,0,0,0,3-3.11,10.19,10.19,0,0,0,0-9.21,8,8,0,0,0-3-3.11,8.63,8.63,0,0,0-8.47,0,8,8,0,0,0-3,3.11,10.19,10.19,0,0,0,0,9.21,8,8,0,0,0,3,3.11,8.7,8.7,0,0,0,8.47,0"/><path class="cls-7" d="M112.61,122.16a4.2,4.2,0,0,1,1.63,1.66,5.45,5.45,0,0,1,0,5,4.23,4.23,0,0,1-1.63,1.67,4.5,4.5,0,0,1-2.28.58,3.43,3.43,0,0,1-2.57-1v4.12h-3.23V121.72h3.08v.92a3.37,3.37,0,0,1,2.72-1.07,4.41,4.41,0,0,1,2.28.59M111,127.93a2.66,2.66,0,0,0,0-3.21,1.82,1.82,0,0,0-1.39-.59,1.84,1.84,0,0,0-1.4.59,2.66,2.66,0,0,0,0,3.21,1.84,1.84,0,0,0,1.4.59,1.82,1.82,0,0,0,1.39-.59"/><path class="cls-7" d="M125.7,127.14H119a1.86,1.86,0,0,0,.79,1.1,2.67,2.67,0,0,0,1.47.38,3,3,0,0,0,1.14-.19,3.29,3.29,0,0,0,1-.61l1.7,1.77a5,5,0,0,1-3.92,1.49,6.22,6.22,0,0,1-2.84-.61,4.56,4.56,0,0,1-1.9-1.7,4.63,4.63,0,0,1-.67-2.46,4.56,4.56,0,0,1,2.47-4.13,5.79,5.79,0,0,1,5.09,0,4.35,4.35,0,0,1,1.78,1.65,4.86,4.86,0,0,1,.65,2.55s0,.29,0,.8m-6.11-2.85a1.9,1.9,0,0,0-.63,1.15h3.77a1.86,1.86,0,0,0-.64-1.15,2,2,0,0,0-2.5,0"/><path class="cls-7" d="M131.61,121.88a4.82,4.82,0,0,1,1.8-.31v2.9c-.29,0-.53,0-.73,0a2.26,2.26,0,0,0-1.62.56,2.29,2.29,0,0,0-.58,1.72v4.23h-3.23v-9.21h3.07v1.11a3,3,0,0,1,1.29-1"/><path class="cls-7" d="M146.07,130.56a3.2,3.2,0,0,1-1,.39,5.57,5.57,0,0,1-1.25.13,4,4,0,0,1-2.77-.88,3.38,3.38,0,0,1-1-2.63v-3.1h-1.34v-2.41h1.34v-2.39h3.23v2.39h2.11v2.41h-2.11v3.06a1.09,1.09,0,0,0,.26.77.92.92,0,0,0,.71.28,1.71,1.71,0,0,0,1-.28Z"/><path class="cls-7" d="M156.4,127.14h-6.69a1.86,1.86,0,0,0,.79,1.1,2.67,2.67,0,0,0,1.47.38,3,3,0,0,0,1.14-.19,3.29,3.29,0,0,0,1-.61l1.7,1.77a5,5,0,0,1-3.93,1.49,6.21,6.21,0,0,1-2.83-.61,4.56,4.56,0,0,1-1.9-1.7,4.63,4.63,0,0,1-.67-2.46,4.58,4.58,0,0,1,.66-2.44,4.52,4.52,0,0,1,1.8-1.69,5.81,5.81,0,0,1,5.1,0,4.35,4.35,0,0,1,1.78,1.65,4.86,4.86,0,0,1,.65,2.55s0,.29,0,.8m-6.11-2.85a1.9,1.9,0,0,0-.63,1.15h3.77a1.91,1.91,0,0,0-.64-1.15,2,2,0,0,0-2.5,0"/><path class="cls-7" d="M172.57,121.72v9.21H169.5v-1a3.24,3.24,0,0,1-1.22.85,4.29,4.29,0,0,1-4.36-.76,4.26,4.26,0,0,1-1.06-3.16v-5.15h3.22v4.62a2.36,2.36,0,0,0,.39,1.51,1.4,1.4,0,0,0,1.14.48,1.6,1.6,0,0,0,1.25-.54,2.37,2.37,0,0,0,.49-1.63v-4.44Z"/><path class="cls-7" d="M183.4,122.59a4.09,4.09,0,0,1,1,3.07v5.27h-3.23v-4.74c0-1.26-.5-1.89-1.51-1.89a1.72,1.72,0,0,0-1.34.55,2.34,2.34,0,0,0-.5,1.63v4.45h-3.22v-9.21h3.07v1a3.54,3.54,0,0,1,1.29-.85,4.34,4.34,0,0,1,1.63-.3,3.76,3.76,0,0,1,2.76,1"/><path class="cls-7" d="M188.56,130.47a4.63,4.63,0,0,1-1.86-1.7,4.64,4.64,0,0,1,1.85-6.6,6.29,6.29,0,0,1,5.36,0,4.5,4.5,0,0,1,1.85,1.68,4.85,4.85,0,0,1,0,4.92,4.54,4.54,0,0,1-1.85,1.7,6.17,6.17,0,0,1-5.35,0m4.06-2.54a2.3,2.3,0,0,0,.54-1.62,2.26,2.26,0,0,0-.54-1.6,1.85,1.85,0,0,0-1.39-.58,1.87,1.87,0,0,0-1.4.58,2.26,2.26,0,0,0-.54,1.6,2.3,2.3,0,0,0,.54,1.62,1.84,1.84,0,0,0,1.4.59,1.82,1.82,0,0,0,1.39-.59"/><path class="cls-7" d="M203.93,130.82a6.39,6.39,0,0,1-1.8-.69l1-2.21a5.41,5.41,0,0,0,1.5.62,6.76,6.76,0,0,0,1.71.23,2.75,2.75,0,0,0,1.12-.16.51.51,0,0,0,.33-.47c0-.2-.14-.35-.4-.43a7.78,7.78,0,0,0-1.27-.25,13.56,13.56,0,0,1-1.88-.35,3,3,0,0,1-1.33-.82,2.35,2.35,0,0,1-.56-1.66,2.55,2.55,0,0,1,.53-1.58,3.49,3.49,0,0,1,1.53-1.08,6.56,6.56,0,0,1,2.42-.4,10.18,10.18,0,0,1,2,.2,5.77,5.77,0,0,1,1.65.58l-1,2.19a5.39,5.39,0,0,0-2.65-.68,2.62,2.62,0,0,0-1.12.18c-.24.12-.36.27-.36.47s.13.36.4.45a9.71,9.71,0,0,0,1.29.26,13.25,13.25,0,0,1,1.88.39,2.92,2.92,0,0,1,1.3.81,2.29,2.29,0,0,1,.55,1.64,2.5,2.5,0,0,1-.52,1.55,3.41,3.41,0,0,1-1.56,1.08,7,7,0,0,1-2.47.39,10.29,10.29,0,0,1-2.28-.26"/><path class="cls-7" d="M214.13,130.47a4.61,4.61,0,0,1,0-8.3,6,6,0,0,1,2.73-.6,5.18,5.18,0,0,1,2.7.67,3.76,3.76,0,0,1,1.62,1.86l-2.5,1.27a2,2,0,0,0-1.83-1.24,2,2,0,0,0-1.44.58,2.19,2.19,0,0,0-.57,1.6,2.22,2.22,0,0,0,.57,1.62,1.93,1.93,0,0,0,1.44.59,2,2,0,0,0,1.83-1.24l2.5,1.27a3.76,3.76,0,0,1-1.62,1.86,5.18,5.18,0,0,1-2.7.67,5.9,5.9,0,0,1-2.73-.61"/><path class="cls-7" d="M224.25,130.47a4.63,4.63,0,0,1-1.86-1.7,4.83,4.83,0,0,1,0-4.91,4.65,4.65,0,0,1,1.85-1.69,6.29,6.29,0,0,1,5.36,0,4.52,4.52,0,0,1,1.86,1.68,4.91,4.91,0,0,1,0,4.92,4.57,4.57,0,0,1-1.86,1.7,6.17,6.17,0,0,1-5.35,0m4.06-2.54a2.3,2.3,0,0,0,.55-1.62,2.27,2.27,0,0,0-.55-1.6,2,2,0,0,0-2.78,0,2.22,2.22,0,0,0-.55,1.6,2.26,2.26,0,0,0,.55,1.62,1.93,1.93,0,0,0,2.78,0"/><path class="cls-7" d="M242.37,122.59a4.09,4.09,0,0,1,1,3.07v5.27h-3.23v-4.74c0-1.26-.51-1.89-1.51-1.89a1.72,1.72,0,0,0-1.34.55,2.34,2.34,0,0,0-.5,1.63v4.45h-3.23v-9.21h3.08v1a3.54,3.54,0,0,1,1.29-.85,4.34,4.34,0,0,1,1.63-.3,3.79,3.79,0,0,1,2.76,1"/><path class="cls-7" d="M251.79,130.56a3.2,3.2,0,0,1-1,.39,5.57,5.57,0,0,1-1.25.13,4,4,0,0,1-2.77-.88,3.38,3.38,0,0,1-1-2.63v-3.1h-1.34v-2.41h1.34v-2.39H249v2.39h2.11v2.41H249v3.06a1.09,1.09,0,0,0,.26.77.92.92,0,0,0,.71.28,1.71,1.71,0,0,0,1-.28Z"/><path class="cls-7" d="M254.71,130.47a4.64,4.64,0,0,1,0-8.3,5.77,5.77,0,0,1,2.67-.6,5.91,5.91,0,0,1,2.69.6,4.5,4.5,0,0,1,1.85,1.68,4.91,4.91,0,0,1,0,4.92,4.54,4.54,0,0,1-1.85,1.7,6.19,6.19,0,0,1-5.36,0m4.06-2.54a2.26,2.26,0,0,0,.55-1.62,2.22,2.22,0,0,0-.55-1.6,2,2,0,0,0-2.78,0,2.27,2.27,0,0,0-.55,1.6,2.3,2.3,0,0,0,.55,1.62,1.93,1.93,0,0,0,2.78,0"/><path class="cls-7" d="M278.8,118.32v12.61h-3.07V130a3.31,3.31,0,0,1-2.7,1.07,4.6,4.6,0,0,1-2.3-.58,4.28,4.28,0,0,1-1.64-1.68,5.55,5.55,0,0,1,0-5,4.2,4.2,0,0,1,1.64-1.65,4.6,4.6,0,0,1,2.3-.58,3.33,3.33,0,0,1,2.54,1v-4.2Zm-3.72,9.61a2.3,2.3,0,0,0,.55-1.62,2.26,2.26,0,0,0-.54-1.6,1.83,1.83,0,0,0-1.38-.58,1.87,1.87,0,0,0-1.4.58,2.26,2.26,0,0,0-.54,1.6,2.3,2.3,0,0,0,.54,1.62,1.84,1.84,0,0,0,1.4.59,1.79,1.79,0,0,0,1.37-.59"/><path class="cls-7" d="M281.06,120.21a1.66,1.66,0,0,1,0-2.45,2.05,2.05,0,0,1,1.43-.49,2.14,2.14,0,0,1,1.43.47,1.5,1.5,0,0,1,.54,1.19,1.66,1.66,0,0,1-.54,1.27,2.31,2.31,0,0,1-2.86,0m-.18,1.51h3.23v9.21h-3.23Z"/><path class="cls-7" d="M301.7,127l2.15,1.93a5.72,5.72,0,0,1-2.18,1.67,7.64,7.64,0,0,1-5.69.06,6.24,6.24,0,0,1-2.18-1.46,5.64,5.64,0,0,1-1.3-2.2h-1.89v-1.67h1.58v-.68h-1.58V123h1.89a5.64,5.64,0,0,1,1.3-2.2,6.11,6.11,0,0,1,2.18-1.46,7.64,7.64,0,0,1,5.69.06,5.69,5.69,0,0,1,2.18,1.66L301.7,123a3.6,3.6,0,0,0-4.41-1,2.84,2.84,0,0,0-1.14,1h3.63v1.66H295.6a3.23,3.23,0,0,0,0,.34,3.13,3.13,0,0,0,0,.34h4.18V127h-3.63a2.81,2.81,0,0,0,1.14,1,3.38,3.38,0,0,0,1.61.37,3.51,3.51,0,0,0,2.8-1.39"/><path class="cls-7" d="M318,125a3.26,3.26,0,0,1,.79,2.2,3.58,3.58,0,0,1-.57,2,4,4,0,0,1-1.73,1.45,6.69,6.69,0,0,1-2.88.56,10,10,0,0,1-2.49-.31A7.27,7.27,0,0,1,309,130l1.23-2.53a5.39,5.39,0,0,0,1.57.73,6.14,6.14,0,0,0,1.72.26,2.61,2.61,0,0,0,1.38-.32,1,1,0,0,0,.51-.92c0-.77-.61-1.16-1.82-1.16H312.2v-2.12l2.13-2.29h-4.69V119h8.59v2.1l-2.46,2.65A4,4,0,0,1,318,125"/><path class="cls-7" d="M322.45,130.44a4.83,4.83,0,0,1-1.86-2.14,8.44,8.44,0,0,1,0-6.64,4.86,4.86,0,0,1,1.86-2.13,5.4,5.4,0,0,1,5.42,0,5,5,0,0,1,1.86,2.13,8.56,8.56,0,0,1,0,6.64,5,5,0,0,1-1.86,2.14,5.4,5.4,0,0,1-5.42,0m4.07-2.85a7,7,0,0,0,0-5.21,1.53,1.53,0,0,0-2.72,0,7,7,0,0,0,0,5.21,1.54,1.54,0,0,0,2.72,0"/><path class="cls-7" d="M334.53,127.79a1.83,1.83,0,0,1,.54,1.37,3,3,0,0,1-.1.78,8.1,8.1,0,0,1-.46,1.18l-1.07,2.48h-2l.8-2.77a1.64,1.64,0,0,1-.74-.66,1.86,1.86,0,0,1-.27-1,1.8,1.8,0,0,1,.55-1.37,1.87,1.87,0,0,1,1.39-.53,1.89,1.89,0,0,1,1.38.53"/><path class="cls-7" d="M338.42,130.44a4.83,4.83,0,0,1-1.86-2.14,8.44,8.44,0,0,1,0-6.64,4.86,4.86,0,0,1,1.86-2.13,5.4,5.4,0,0,1,5.42,0,5,5,0,0,1,1.86,2.13,8.56,8.56,0,0,1,0,6.64,5,5,0,0,1-1.86,2.14,5.4,5.4,0,0,1-5.42,0m4.07-2.85a7,7,0,0,0,0-5.21,1.53,1.53,0,0,0-2.72,0,7,7,0,0,0,0,5.21,1.54,1.54,0,0,0,2.72,0"/><path class="cls-7" d="M350.05,130.44a5,5,0,0,1-1.86-2.14,8.56,8.56,0,0,1,0-6.64,5,5,0,0,1,1.86-2.13,5.08,5.08,0,0,1,2.72-.73,5,5,0,0,1,2.7.73,4.86,4.86,0,0,1,1.86,2.13,8.56,8.56,0,0,1,0,6.64,4.83,4.83,0,0,1-1.86,2.14,5.1,5.1,0,0,1-2.7.73,5.17,5.17,0,0,1-2.72-.73m4.07-2.85a7,7,0,0,0,0-5.21,1.52,1.52,0,0,0-1.35-.83,1.55,1.55,0,0,0-1.37.83,7,7,0,0,0,0,5.21,1.54,1.54,0,0,0,1.37.82,1.51,1.51,0,0,0,1.35-.82"/><path class="cls-7" d="M54.24,117.23C35.35,117.23,20,99.41,20,77.52c0-8.23,4.63-19.81,13.75-34.42A267.33,267.33,0,0,1,51.51,18.24a3.48,3.48,0,0,1,2.73-1.3h0A3.48,3.48,0,0,1,57,18.24,267.33,267.33,0,0,1,74.75,43.1c9.12,14.61,13.74,26.19,13.74,34.42,0,21.89-15.36,39.71-34.25,39.71m0-95.62c-6.18,7.72-30,38.65-30,55.91,0,19.56,13.47,35.47,30,35.47s30-15.91,30-35.47c0-17.26-23.84-48.19-30-55.91"/><path class="cls-7" d="M54.24,116.77c-10.48,0-19-9.83-19-21.91,0-9.81,11.69-25.49,16.72-31.78a2.91,2.91,0,0,1,4.56,0c5,6.29,16.71,22,16.71,31.78,0,12.08-8.52,21.91-19,21.91m0-50.9c-7.57,9.57-15.48,22-15.48,29,0,10.14,6.94,18.4,15.48,18.4S69.72,105,69.72,94.86c0-7-7.91-19.42-15.48-29"/><polygon class="cls-2" points="377.63 150.38 375.89 155.28 374.23 155.28 373.31 152.61 372.35 155.28 370.69 155.28 368.95 150.38 370.57 150.38 371.58 153.35 372.61 150.38 374.08 150.38 375.09 153.37 376.13 150.38 377.63 150.38"/><polygon class="cls-2" points="386.11 150.38 384.37 155.28 382.71 155.28 381.79 152.61 380.83 155.28 379.17 155.28 377.43 150.38 379.05 150.38 380.05 153.35 381.09 150.38 382.56 150.38 383.57 153.37 384.61 150.38 386.11 150.38"/><polygon class="cls-2" points="394.59 150.38 392.85 155.28 391.19 155.28 390.27 152.61 389.31 155.28 387.65 155.28 385.91 150.38 387.53 150.38 388.53 153.35 389.57 150.38 391.04 150.38 392.05 153.37 393.08 150.38 394.59 150.38"/><path class="cls-2" d="M394.83,155.07a1,1,0,0,1-.3-.73,1,1,0,0,1,.29-.73,1,1,0,0,1,.74-.28,1,1,0,0,1,.74.28,1,1,0,0,1,.29.73,1,1,0,0,1-.3.73,1,1,0,0,1-.73.29,1,1,0,0,1-.73-.29"/><path class="cls-2" d="M398.4,155a2.46,2.46,0,0,1-1.34-2.22,2.43,2.43,0,0,1,1.34-2.2,3.12,3.12,0,0,1,1.42-.32,3.17,3.17,0,0,1,1.43.32,2.44,2.44,0,0,1,1,.9,2.49,2.49,0,0,1-1,3.52,3.33,3.33,0,0,1-2.85,0m2.16-1.35a1.25,1.25,0,0,0,.29-.87,1.22,1.22,0,0,0-.29-.85,1.06,1.06,0,0,0-1.48,0,1.22,1.22,0,0,0-.29.85,1.25,1.25,0,0,0,.29.87,1,1,0,0,0,1.48,0"/><path class="cls-2" d="M411.19,150.85a2.21,2.21,0,0,1,.54,1.63v2.8H410v-2.52a1.21,1.21,0,0,0-.2-.76.66.66,0,0,0-.54-.24.8.8,0,0,0-.63.27,1.25,1.25,0,0,0-.23.82v2.43H406.7v-2.52c0-.67-.24-1-.74-1a.8.8,0,0,0-.63.27,1.2,1.2,0,0,0-.24.82v2.43h-1.71v-4.9H405v.52a1.73,1.73,0,0,1,.65-.45,2.18,2.18,0,0,1,.82-.15,2.26,2.26,0,0,1,.92.19,1.6,1.6,0,0,1,.66.58,1.79,1.79,0,0,1,.73-.57,2.32,2.32,0,0,1,1-.2,1.88,1.88,0,0,1,1.44.55"/><path class="cls-2" d="M417.47,150.85a2.17,2.17,0,0,1,.55,1.63v2.8h-1.71v-2.52c0-.67-.27-1-.81-1a.87.87,0,0,0-.7.29,1.22,1.22,0,0,0-.27.86v2.37h-1.72v-4.9h1.64v.54a2,2,0,0,1,.68-.46,2.49,2.49,0,0,1,.87-.16,2,2,0,0,1,1.47.55"/><path class="cls-2" d="M419.2,149.58a.84.84,0,0,1-.29-.65.86.86,0,0,1,.29-.65A1.09,1.09,0,0,1,420,148a1.12,1.12,0,0,1,.76.25.79.79,0,0,1,.29.63.91.91,0,0,1-.29.68,1.13,1.13,0,0,1-.76.26,1.09,1.09,0,0,1-.76-.26m-.1.8h1.72v4.9H419.1Z"/><path class="cls-2" d="M425.87,150.86a2.12,2.12,0,0,1,.64,1.7v2.72h-1.6v-.63a1.46,1.46,0,0,1-1.44.71,2.25,2.25,0,0,1-1-.2,1.39,1.39,0,0,1-.84-1.31,1.25,1.25,0,0,1,.53-1.08,2.85,2.85,0,0,1,1.64-.38h1c0-.52-.38-.78-1-.78a2.21,2.21,0,0,0-.71.12,1.64,1.64,0,0,0-.62.31l-.58-1.17a3.21,3.21,0,0,1,1-.42,4.69,4.69,0,0,1,1.17-.15,2.77,2.77,0,0,1,1.86.56m-1.4,3.27a.82.82,0,0,0,.33-.42v-.43h-.74c-.5,0-.75.17-.75.5a.42.42,0,0,0,.17.36.73.73,0,0,0,.47.14.91.91,0,0,0,.52-.15"/><path class="cls-2" d="M432.64,153.27h-3.55a1,1,0,0,0,.42.58,1.41,1.41,0,0,0,.78.2,1.66,1.66,0,0,0,.61-.1,1.75,1.75,0,0,0,.52-.32l.9.94a2.66,2.66,0,0,1-2.09.79,3.32,3.32,0,0,1-1.51-.33,2.36,2.36,0,0,1-1-.9,2.41,2.41,0,0,1-.36-1.31,2.45,2.45,0,0,1,.35-1.29,2.38,2.38,0,0,1,1-.9,2.87,2.87,0,0,1,1.38-.33,2.8,2.8,0,0,1,1.33.31,2.26,2.26,0,0,1,.94.87,2.6,2.6,0,0,1,.35,1.36l0,.43m-3.24-1.52a1,1,0,0,0-.34.61h2a1,1,0,0,0-.34-.61,1,1,0,0,0-.66-.23,1,1,0,0,0-.66.23"/><path class="cls-2" d="M438.12,150.85a2.17,2.17,0,0,1,.55,1.63v2.8H437v-2.52c0-.67-.27-1-.81-1a.87.87,0,0,0-.7.29,1.22,1.22,0,0,0-.27.86v2.37h-1.72v-4.9h1.64v.54a2,2,0,0,1,.68-.46,2.49,2.49,0,0,1,.87-.16,2,2,0,0,1,1.47.55"/><path class="cls-2" d="M444.8,153.27h-3.56a1,1,0,0,0,.42.58,1.46,1.46,0,0,0,.78.2,1.59,1.59,0,0,0,.61-.1,1.75,1.75,0,0,0,.52-.32l.9.94a2.64,2.64,0,0,1-2.08.79,3.26,3.26,0,0,1-1.51-.33,2.36,2.36,0,0,1-1.36-2.21,2.44,2.44,0,0,1,.34-1.29,2.38,2.38,0,0,1,1-.9,2.88,2.88,0,0,1,1.39-.33,2.76,2.76,0,0,1,1.32.31,2.34,2.34,0,0,1,1,.87,2.59,2.59,0,0,1,.34,1.36s0,.15,0,.43m-3.25-1.52a1,1,0,0,0-.34.61h2a1,1,0,0,0-1.67-.61"/><path class="cls-2" d="M447.94,150.47a2.57,2.57,0,0,1,1-.17v1.55l-.39,0a1.17,1.17,0,0,0-.86.3,1.2,1.2,0,0,0-.32.91v2.25h-1.71v-4.9h1.63V151a1.67,1.67,0,0,1,.69-.5"/><path class="cls-2" d="M454.82,150.38v4a2.65,2.65,0,0,1-.74,2,3,3,0,0,1-2.13.68,5.45,5.45,0,0,1-1.36-.16,3.29,3.29,0,0,1-1.07-.48l.62-1.2a2.17,2.17,0,0,0,.76.38,2.82,2.82,0,0,0,.9.14,1.44,1.44,0,0,0,1-.29,1.18,1.18,0,0,0,.32-.89v-.16a1.85,1.85,0,0,1-1.46.58,2.48,2.48,0,0,1-1.2-.3,2.11,2.11,0,0,1-.87-.83,2.48,2.48,0,0,1,0-2.47,2.11,2.11,0,0,1,.87-.83,2.48,2.48,0,0,1,1.2-.3,1.78,1.78,0,0,1,1.54.68v-.6Zm-2,3a.92.92,0,0,0,.3-.72,1,1,0,0,0-.29-.72,1.23,1.23,0,0,0-1.54,0,1,1,0,0,0,0,1.44,1.09,1.09,0,0,0,.77.28,1.05,1.05,0,0,0,.76-.28"/><path class="cls-2" d="M456,149.58a.84.84,0,0,1-.29-.65.86.86,0,0,1,.29-.65,1.26,1.26,0,0,1,1.52,0,.79.79,0,0,1,.29.63.91.91,0,0,1-.29.68,1.24,1.24,0,0,1-1.52,0m-.1.8h1.72v4.9h-1.72Z"/><path class="cls-2" d="M462.69,150.86a2.12,2.12,0,0,1,.64,1.7v2.72h-1.59v-.63a1.49,1.49,0,0,1-1.45.71,2.25,2.25,0,0,1-1-.2,1.39,1.39,0,0,1-.84-1.31,1.27,1.27,0,0,1,.53-1.08,2.88,2.88,0,0,1,1.64-.38h1c0-.52-.38-.78-1-.78a2.25,2.25,0,0,0-.71.12,1.72,1.72,0,0,0-.62.31l-.57-1.17a3.26,3.26,0,0,1,1-.42,4.69,4.69,0,0,1,1.17-.15,2.74,2.74,0,0,1,1.86.56m-1.4,3.27a.82.82,0,0,0,.33-.42v-.43h-.74c-.5,0-.75.17-.75.5a.45.45,0,0,0,.17.36.73.73,0,0,0,.47.14.91.91,0,0,0,.52-.15"/><path class="cls-2" d="M464.41,155.07a1,1,0,0,1-.3-.73,1,1,0,0,1,.3-.73,1,1,0,0,1,1.47,1.46,1.08,1.08,0,0,1-1.47,0"/><path class="cls-2" d="M467.07,149.58a.83.83,0,0,1-.28-.65.85.85,0,0,1,.28-.65,1.13,1.13,0,0,1,.76-.26,1.11,1.11,0,0,1,.76.25.79.79,0,0,1,.29.63.91.91,0,0,1-.29.68,1.11,1.11,0,0,1-.76.26,1.13,1.13,0,0,1-.76-.26m-.09.8h1.71v4.9H467Z"/><path class="cls-2" d="M473.18,155.08a1.83,1.83,0,0,1-.53.21,2.84,2.84,0,0,1-.66.07,2.15,2.15,0,0,1-1.48-.47,1.81,1.81,0,0,1-.51-1.4v-1.64h-.71v-1.29H470v-1.27h1.71v1.27h1.12v1.29h-1.12v1.62a.54.54,0,0,0,.15.41.47.47,0,0,0,.37.15.91.91,0,0,0,.52-.15Z"/><line class="cls-9" x1="103.5" y1="114.79" x2="358.58" y2="114.79"/><line class="cls-9" x1="103.5" y1="136.67" x2="358.58" y2="136.67"/></g></svg>