<svg id="Livello_1" data-name="Livello 1" xmlns="http://www.w3.org/2000/svg" viewBox="0 0 261.71 99.93"><defs><style>.cls-1{fill:#b42d37;}.cls-2{fill:none;}</style></defs><title>header_ee</title><rect class="cls-1" width="261.7"/><path class="cls-2" d="M261.7,0V99.93H11.49A11.49,11.49,0,0,1,0,88.43V0H0V99.93H261.71V0Z"/><polygon class="cls-1" points="173.8 64.03 173.16 65.93 174.41 65.93 173.8 64.03"/><path class="cls-1" d="M83.63,75.51c0-.13-.12-.33-.2-.61s-.15-.49-.18-.62a11.66,11.66,0,0,1-.39,1.32l-.64,1.86H84.3Z"/><path class="cls-1" d="M76.44,74.29h-.77v2.34h.81a1.81,1.81,0,0,0,1.18-.31,1.1,1.1,0,0,0,.36-.89,1,1,0,0,0-.39-.87A2.12,2.12,0,0,0,76.44,74.29Z"/><path class="cls-1" d="M170.42,79.55a1.86,1.86,0,0,0,1.57-.68,3.14,3.14,0,0,0,.53-2,3.25,3.25,0,0,0-.52-2,1.86,1.86,0,0,0-1.57-.67,1.89,1.89,0,0,0-1.58.67,4,4,0,0,0,0,4A1.88,1.88,0,0,0,170.42,79.55Z"/><polygon class="cls-1" points="75.55 64.03 74.91 65.93 76.15 65.93 75.55 64.03"/><polygon class="cls-1" points="119.64 64.03 119 65.93 120.24 65.93 119.64 64.03"/><path class="cls-1" d="M108.07,76.32a1.1,1.1,0,0,0,.36-.89,1,1,0,0,0-.39-.87,2.12,2.12,0,0,0-1.19-.27h-.77v2.34h.81A1.81,1.81,0,0,0,108.07,76.32Z"/><path class="cls-1" d="M120.18,74.9c-.09-.28-.15-.49-.18-.62a11.66,11.66,0,0,1-.39,1.32L119,77.46h2.08l-.67-1.95C120.33,75.38,120.26,75.18,120.18,74.9Z"/><path class="cls-1" d="M158.71,64.12a.68.68,0,0,0,.2-.5.69.69,0,0,0-.2-.51.75.75,0,0,0-.56-.21h-1v1.44h1A.75.75,0,0,0,158.71,64.12Z"/><path class="cls-1" d="M152.74,78.3a1,1,0,0,0-.38-.83,2,2,0,0,0-1.16-.27H150v2.26h1.24a1.77,1.77,0,0,0,1.1-.28A1,1,0,0,0,152.74,78.3Z"/><path class="cls-1" d="M104.16,64.12a.71.71,0,0,0,0-1,.74.74,0,0,0-.55-.21h-1v1.44h1A.75.75,0,0,0,104.16,64.12Z"/><path class="cls-1" d="M152.21,76a.88.88,0,0,0,.34-.78.78.78,0,0,0-.37-.73,2.23,2.23,0,0,0-1.15-.23h-1v2h1.12A1.86,1.86,0,0,0,152.21,76Z"/><path class="cls-1" d="M216.6,50.05a11.59,11.59,0,0,0-10.89,11.37,11.35,11.35,0,0,0,4.25,9,4.06,4.06,0,0,1,1.47,3.19V75.4a.82.82,0,0,0,.82.82h9.82a.82.82,0,0,0,.82-.82V73.49a4,4,0,0,1,1.54-3.14h0a11.45,11.45,0,0,0-7.83-20.29Z"/><path class="cls-1" d="M39,66.6a.86.86,0,0,0,.31.25,1,1,0,0,0,.41.1.8.8,0,0,0,.65-.25,1.44,1.44,0,0,0,.25-.58,12.64,12.64,0,0,0,0-2.46,1.2,1.2,0,0,0-.2-.52.68.68,0,0,0-.29-.23.91.91,0,0,0-.41-.08.88.88,0,0,0-.41.08.93.93,0,0,0-.31.25,1.14,1.14,0,0,0-.18.49,8.36,8.36,0,0,0-.06,1.24,8.2,8.2,0,0,0,.06,1.23A1.09,1.09,0,0,0,39,66.6Z"/><path class="cls-1" d="M217.16,89.32a2.47,2.47,0,0,0,2.32-1.64h-4.63A2.46,2.46,0,0,0,217.16,89.32Z"/><path class="cls-1" d="M164.16,74.56a2.12,2.12,0,0,0-1.19-.27h-.77v2.34H163a1.79,1.79,0,0,0,1.18-.31,1.07,1.07,0,0,0,.37-.89A.94.94,0,0,0,164.16,74.56Z"/><path class="cls-1" d="M220.44,84.41h-6.55a.82.82,0,1,0,0,1.63h6.55a.82.82,0,0,0,0-1.63Z"/><path class="cls-1" d="M132.92,74.2a1.91,1.91,0,0,0-1.59.67,4,4,0,0,0,0,4,2.16,2.16,0,0,0,3.15,0,3.2,3.2,0,0,0,.53-2,3.24,3.24,0,0,0-.53-2A1.85,1.85,0,0,0,132.92,74.2Z"/><path class="cls-1" d="M39.27,79.55a1.88,1.88,0,0,0,1.57-.68,3.2,3.2,0,0,0,.53-2,3.31,3.31,0,0,0-.52-2,1.88,1.88,0,0,0-1.57-.67,1.91,1.91,0,0,0-1.59.67,4,4,0,0,0,0,4A1.9,1.9,0,0,0,39.27,79.55Z"/><path class="cls-1" d="M213.07,78.68a.82.82,0,0,0,.82.82h6.55a.82.82,0,0,0,.81-.82v-.82h-8.18Z"/><path class="cls-1" d="M34.3,66.25a.65.65,0,0,0-.16-.44.59.59,0,0,0-.48-.18H32.48v1.26h1.18a.59.59,0,0,0,.48-.19A.67.67,0,0,0,34.3,66.25Z"/><path class="cls-1" d="M11.49,99.93H261.7V0H0V88.43A11.49,11.49,0,0,0,11.49,99.93ZM35,74.29H32.11v2.23H34.8v1H32.11v2.93H31V73.31h4Zm21.5,6.16H55.05l-3.51-5.69h0l0,.31c0,.61.06,1.16.06,1.66v3.72H50.53V73.31H52L55.45,79h0c0-.08,0-.35,0-.82s0-.84,0-1.1V73.31h1.07Zm3.05,0H58.37V73.31h1.16Zm13.14-2.52a2.72,2.72,0,0,1-.34,1.38,2.17,2.17,0,0,1-1,.91,3.32,3.32,0,0,1-1.53.32,2.87,2.87,0,0,1-2.07-.7A2.55,2.55,0,0,1,67,77.91v-4.6h1.18v4.51a1.79,1.79,0,0,0,.41,1.31,1.68,1.68,0,0,0,1.26.42q1.65,0,1.65-1.74v-4.5h1.16Zm30.7-3.64H100.5v1.95h2.69v1H100.5v2.24h2.87v1h-4V73.31h4Zm9.36,4.58a2,2,0,0,0,1.61.68,4.31,4.31,0,0,0,.88-.09c.28-.06.58-.14.88-.23v1a5.37,5.37,0,0,1-1.9.31,3,3,0,0,1-2.41-1,4,4,0,0,1-.84-2.71,4.38,4.38,0,0,1,.41-1.95,2.87,2.87,0,0,1,1.18-1.28,3.5,3.5,0,0,1,1.81-.45,4.57,4.57,0,0,1,2,.46l-.42,1a6.36,6.36,0,0,0-.76-.31,3,3,0,0,0-.85-.12,1.9,1.9,0,0,0-1.58.71,3,3,0,0,0-.58,2A3.05,3.05,0,0,0,112.73,78.87Zm22.65.71a3.68,3.68,0,0,1-5,0,4,4,0,0,1-.86-2.72,3.88,3.88,0,0,1,.87-2.72,3.22,3.22,0,0,1,2.49-1,3.16,3.16,0,0,1,2.46,1,4.66,4.66,0,0,1,0,5.42Zm9.19.87h-4.19V73.31h1.17v6.13h3Zm2.4,0H145.8V73.31H147Zm12.52-6.16h-2.87v1.95h2.69v1h-2.69v2.24h2.87v1h-4V73.31h4Zm5.57,6.16-1.71-2.86H162.2v2.86H161V73.31h2a3.38,3.38,0,0,1,2,.51,1.88,1.88,0,0,1,.66,1.57,2,2,0,0,1-1.39,1.9l2,3.16ZM204.1,70l-2.83,1.63h0a.83.83,0,0,1-1.12-.31.82.82,0,0,1,.31-1.11l2.84-1.64a.8.8,0,0,1,.4-.11.79.79,0,0,1,.71.41A.81.81,0,0,1,204.1,70Zm21.36,1.63a2.46,2.46,0,0,0-.93,1.88V75.4a2.47,2.47,0,0,1-1.64,2.31v1a2.41,2.41,0,0,1-.64,1.63,2.43,2.43,0,0,1,0,3.28,2.49,2.49,0,0,1,.53.92,2.43,2.43,0,0,1-1.6,3,4.08,4.08,0,0,1-8,0,2.49,2.49,0,0,1-.92-.53,2.42,2.42,0,0,1-.15-3.43,2.43,2.43,0,0,1,0-3.28,2.45,2.45,0,0,1-.64-1.63v-1a2.46,2.46,0,0,1-1.63-2.31V73.58a2.45,2.45,0,0,0-.87-1.91,13,13,0,0,1-4.86-10.26,13.26,13.26,0,0,1,12.46-13h.64a13,13,0,0,1,9,3.62h0a13.7,13.7,0,0,1,1.1,1.18A13.09,13.09,0,0,1,225.46,71.61Zm8.71-.29a.82.82,0,0,1-1.12.29L230.22,70h0a.82.82,0,0,1,.83-1.41l2.83,1.64h0A.82.82,0,0,1,234.17,71.32Zm2.63-9.83a.81.81,0,0,1-.82.82h-3.27a.82.82,0,0,1,0-1.64H236A.82.82,0,0,1,236.8,61.49ZM230.22,53l2.83-1.64h0a.82.82,0,0,1,1.12.3.83.83,0,0,1-.31,1.12L231,54.43h0a.82.82,0,0,1-1.12-.3A.83.83,0,0,1,230.22,53Zm-6-5.39,1.63-2.84h0a.82.82,0,0,1,1.41.83l-1.64,2.84a.81.81,0,0,1-1.11.3h0A.81.81,0,0,1,224.23,47.62Zm-7.89-4.95a.82.82,0,1,1,1.64,0v3.27a.82.82,0,0,1-1.64,0Zm-9,1.81a.82.82,0,0,1,1.12.3l1.64,2.84h0a.82.82,0,0,1-1.42.81L207,45.6h0A.81.81,0,0,1,207.34,44.48Zm-7.19,7.18a.82.82,0,0,1,1.12-.29L204.1,53h0a.84.84,0,0,1,.3,1.13.83.83,0,0,1-1.12.29l-2.84-1.64h0A.81.81,0,0,1,200.15,51.66Zm-1.81,9h3.27a.82.82,0,0,1,0,1.64h-3.27a.82.82,0,1,1,0-1.64Zm-25.26.66h1.36L177,68.46H175.2l-.33-1.07h-2.2l-.34,1.07h-1.84Zm-.19,12.83a4.66,4.66,0,0,1,0,5.42,3.67,3.67,0,0,1-4.95,0,3.92,3.92,0,0,1-.87-2.72,3.84,3.84,0,0,1,.88-2.72,3.2,3.2,0,0,1,2.48-1A3.16,3.16,0,0,1,172.89,74.16Zm-7.89-11a1.85,1.85,0,0,1,.56-1,3,3,0,0,1,.94-.66,2.8,2.8,0,0,1,1.1-.2,2.65,2.65,0,0,1,1.77.61,2.75,2.75,0,0,1,.92,1.79h-1.77a1.34,1.34,0,0,0-.31-.62.75.75,0,0,0-.6-.22,1,1,0,0,0-.41.07.67.67,0,0,0-.29.24,1.12,1.12,0,0,0-.2.51,13.9,13.9,0,0,0,0,2.47,1.44,1.44,0,0,0,.25.58.81.81,0,0,0,.66.25.9.9,0,0,0,.6-.19,1.12,1.12,0,0,0,.31-.49h1.77a2.58,2.58,0,0,1-.91,1.67,2.79,2.79,0,0,1-1.78.57,2.48,2.48,0,0,1-1.83-.65,2.54,2.54,0,0,1-.77-1.27,14.76,14.76,0,0,1,0-3.43Zm-3.07-1.83h1.75v7.13h-1.75Zm-6.52,0h2.82A2.36,2.36,0,0,1,160,62a2.26,2.26,0,0,1,.64,1.62,1.9,1.9,0,0,1-.34,1.14,2.17,2.17,0,0,1-.82.72l1.54,3h-2l-1.26-2.66h-.59v2.66h-1.75Zm-6.26,0h5.25v1.56h-1.75v5.57H150.9V62.89h-1.75Zm-.3,12H151a4,4,0,0,1,2.13.43,1.49,1.49,0,0,1,.66,1.35,1.65,1.65,0,0,1-.32,1,1.5,1.5,0,0,1-.93.53v0a1.83,1.83,0,0,1,1.1.55,1.68,1.68,0,0,1,.36,1.13,1.85,1.85,0,0,1-.67,1.51,2.91,2.91,0,0,1-1.87.55h-2.58Zm-5.55-12h5.25v1.56H146.8v5.57h-1.75V62.89H143.3Zm-5.66,0h4.84v1.56h-3.09v1.19H142v1.56h-2.64V66.9h3.09v1.56h-4.84Zm-5.76,0h1.75V66.9h3v1.56h-4.74Zm-6.08,0h4.84v1.56h-3.09v1.19h2.64v1.56h-2.64V66.9h3.09v1.56H125.8Zm-2.35,12h5.37v1h-2.1v6.14h-1.17V74.31h-2.1Zm-1.38,7.14-.71-2h-2.73l-.7,2H116.7l2.67-7.17h1.27l2.67,7.17Zm-3.15-19.12h1.35l2.59,7.13H121l-.33-1.07h-2.19l-.35,1.07h-1.83Zm-5.06,0h1.75v7.13h-1.75Zm-6.6,1.83a1.91,1.91,0,0,1,.56-1,3.07,3.07,0,0,1,.93-.66,2.75,2.75,0,0,1,1.11-.2,2.62,2.62,0,0,1,2,.68,2.86,2.86,0,0,1,.83,1.68h-1.76a1.18,1.18,0,0,0-.34-.61,1,1,0,0,0-.68-.19.81.81,0,0,0-.71.33,1.14,1.14,0,0,0-.18.49,8.36,8.36,0,0,0-.06,1.24,8.46,8.46,0,0,0,.06,1.24,1.37,1.37,0,0,0,.24.58.77.77,0,0,0,.65.24,1,1,0,0,0,.72-.21,1.12,1.12,0,0,0,.26-.41,1.16,1.16,0,0,0,.07-.42v-.1h-1V64.35h2.79v1a4.91,4.91,0,0,1-.16,1.42,2.26,2.26,0,0,1-.56.95,2.45,2.45,0,0,1-.94.62,3.39,3.39,0,0,1-1.13.18,2.48,2.48,0,0,1-1.83-.65,2.45,2.45,0,0,1-.76-1.27,9.53,9.53,0,0,1-.11-1.7A10.71,10.71,0,0,1,107.26,63.16ZM109,73.82a1.89,1.89,0,0,1,.67,1.57,2,2,0,0,1-1.39,1.9l2,3.16h-1.33l-1.71-2.86h-1.15v2.86h-1.17V73.31h2A3.33,3.33,0,0,1,109,73.82Zm-8.1-12.49h2.82a2.34,2.34,0,0,1,1.78.67,2.27,2.27,0,0,1,.65,1.62,2,2,0,0,1-.34,1.14,2.24,2.24,0,0,1-.82.72l1.54,3h-2l-1.26-2.66h-.59v2.66h-1.75Zm-6.08,0h4.84v1.56H96.54v1.19h2.64v1.56H96.54V66.9h3.09v1.56H94.79ZM93.76,79l2-5.68h1.65v7.14H96.33V76.92c0-.36,0-.82,0-1.39s0-.92.05-1h0l-2.14,6h-1l-2.07-6h0c0,.89.08,1.72.08,2.49v3.48H90.1V73.31h1.65l2,5.68Zm-6-17.66h1.53l2.28,3.58V61.33h1.75v7.13H91.82l-2.28-3.58v3.58H87.79Zm-6.08,0h4.84v1.56H83.46v1.19H86.1v1.56H83.46V66.9h3.09v1.56H81.71Zm.91,12h1.27l2.67,7.17H85.32l-.71-2H81.88l-.7,2H80Zm-2.76,7.17H78.53l-1.71-2.86H75.67v2.86H74.5V73.31h2a3.33,3.33,0,0,1,2,.51,1.89,1.89,0,0,1,.67,1.57,2,2,0,0,1-1.39,1.9Zm-5-19.12h1.35l2.59,7.13H76.94l-.33-1.07H74.42l-.35,1.07H72.24Zm-8.14,0h5.25v1.56H70.19v5.57H68.44V62.89H66.69Zm-5.85,0h5.25v1.56H64.34v5.57H62.59V62.89H60.84Zm-.22,12H66v1h-2.1v6.14H62.72V74.31h-2.1Zm-5.44-12H60v1.56H56.93v1.19h2.64v1.56H56.93V66.9H60v1.56H55.18Zm-5.76,0h1.75V66.9h3v1.56H49.42Zm.08,19.12H48.17l-1.71-2.86H45.31v2.86H44.14V73.31h2a3.38,3.38,0,0,1,2.05.51,1.88,1.88,0,0,1,.66,1.57,2,2,0,0,1-1.39,1.9ZM43.66,61.33h1.75V66.9h3v1.56H43.66Zm-6.53,1.83a1.94,1.94,0,0,1,.56-1,3,3,0,0,1,.94-.65,2.75,2.75,0,0,1,1.11-.2,2.48,2.48,0,0,1,1.84.65,2.52,2.52,0,0,1,.76,1.26,10.64,10.64,0,0,1,.11,1.71,10.34,10.34,0,0,1-.11,1.72,2.07,2.07,0,0,1-.61,1.1,3,3,0,0,1-.88.6,2.93,2.93,0,0,1-1.11.2,2.49,2.49,0,0,1-1.84-.65,2.45,2.45,0,0,1-.76-1.27,9.53,9.53,0,0,1-.11-1.7A10.71,10.71,0,0,1,37.13,63.16Zm2.15,10a3.16,3.16,0,0,1,2.46,1,4.66,4.66,0,0,1,0,5.42,3.17,3.17,0,0,1-2.47,1,3.15,3.15,0,0,1-2.48-1,4.69,4.69,0,0,1,0-5.44A3.22,3.22,0,0,1,39.28,73.19ZM30.73,61.33h2.95a2.34,2.34,0,0,1,1.68.56,2,2,0,0,1,.59,1.5,1.49,1.49,0,0,1-.24.87,2.31,2.31,0,0,1-.54.54,2.27,2.27,0,0,1,.63.56,1.68,1.68,0,0,1,.25,1,2,2,0,0,1-.62,1.55,2.29,2.29,0,0,1-1.6.56h-3.1Z"/><path class="cls-1" d="M34.05,63.89a.61.61,0,0,0,.15-.41.56.56,0,0,0-.63-.58H32.48v1.16h1.09A.62.62,0,0,0,34.05,63.89Z"/><path class="cls-1" d="M220.44,81.13h-6.55a.82.82,0,0,0,0,1.64h6.55a.82.82,0,0,0,0-1.64Z"/><path class="cls-1" d="M46.08,74.29h-.77v2.34h.81a1.79,1.79,0,0,0,1.18-.31,1.07,1.07,0,0,0,.37-.89.94.94,0,0,0-.4-.87A2.12,2.12,0,0,0,46.08,74.29Z"/></svg>