<svg id="Livello_1" data-name="Livello 1" xmlns="http://www.w3.org/2000/svg" viewBox="0 0 106.19 36.85"><defs><style>.cls-1{fill:#b4252d;}.cls-2{fill:#1d1d1b;}</style></defs><title>logo</title><path class="cls-1" d="M12.37,13.91a4.11,4.11,0,0,0-3.1,1.25,4.47,4.47,0,0,0-1.19,3.21A4.67,4.67,0,0,0,9.23,21.7a4.1,4.1,0,0,0,3.14,1.23,4,4,0,0,0,3.11-1.26,4.78,4.78,0,0,0,1.16-3.38,4.27,4.27,0,0,0-1.22-3.14A4.12,4.12,0,0,0,12.37,13.91Z"/><path class="cls-1" d="M27.09,14.46a4.41,4.41,0,0,0-2.68-.79,4,4,0,0,0-2.52.86,4.12,4.12,0,0,0-1.5,2.24h8.22A4.31,4.31,0,0,0,27.09,14.46Z"/><path class="cls-1" d="M32.63,0H4.22A4.22,4.22,0,0,0,0,4.22V32.63a4.22,4.22,0,0,0,4.22,4.22H32.63a4.22,4.22,0,0,0,4.22-4.22V4.22A4.22,4.22,0,0,0,32.63,0Zm-.24,19.18c0,.17,0,.29,0,.38H20.27a3.71,3.71,0,0,0,1.3,2.57,4.33,4.33,0,0,0,2.89.94,4.45,4.45,0,0,0,2.12-.49,3.7,3.7,0,0,0,1.49-1.39h3.8A8.2,8.2,0,0,1,29,25a7.46,7.46,0,0,1-4.43,1.37,8,8,0,0,1-3.12-.6A7.82,7.82,0,0,1,18.89,24c-.14-.15-.28-.31-.41-.47-.14.17-.28.34-.44.5a7.56,7.56,0,0,1-2.57,1.76,8,8,0,0,1-3.13.6,7.84,7.84,0,0,1-3.11-.6A7.89,7.89,0,0,1,6.68,24a8.12,8.12,0,0,1-2.23-5.6,7.9,7.9,0,0,1,.58-3,7.8,7.8,0,0,1,1.7-2.56A8.38,8.38,0,0,1,9.3,11.06a7.59,7.59,0,0,1,3-.61,8,8,0,0,1,3,.55,7.9,7.9,0,0,1,2.53,1.62,8.52,8.52,0,0,1,.65.71l.31-.36a8.46,8.46,0,0,1,2.61-1.88,7.28,7.28,0,0,1,3-.66,7.79,7.79,0,0,1,3.66.89A8.55,8.55,0,0,1,31,13.84,6.82,6.82,0,0,1,32.05,16a9.83,9.83,0,0,1,.35,2.78C32.4,18.88,32.4,19,32.39,19.18Z"/><path class="cls-2" d="M45.66,18.83a2.84,2.84,0,0,1-3,3,2.77,2.77,0,0,1-2.92-2.91,2.82,2.82,0,0,1,3-3A2.75,2.75,0,0,1,45.66,18.83Zm-4.09.06c0,1,.4,1.7,1.15,1.7s1.12-.68,1.12-1.7c0-.84-.32-1.7-1.12-1.7S41.57,18.06,41.57,18.89Z"/><path class="cls-2" d="M46.18,17.87c0-.7,0-1.3,0-1.8h1.48l.08.76h0a2,2,0,0,1,1.71-.89,1.6,1.6,0,0,1,1.55,1h0a2.43,2.43,0,0,1,.72-.68,2.09,2.09,0,0,1,1.08-.28c1.08,0,1.9.77,1.9,2.45v3.33H53V18.65c0-.82-.26-1.3-.83-1.3a.87.87,0,0,0-.81.62,1.63,1.63,0,0,0-.07.45v3.3H49.58V18.56c0-.72-.25-1.21-.8-1.21A.89.89,0,0,0,48,18a1.13,1.13,0,0,0-.07.44v3.29H46.18Z"/><path class="cls-2" d="M55.54,17.87c0-.7,0-1.3,0-1.8H57l.08.78h0a2.05,2.05,0,0,1,1.74-.91c1.16,0,2,.77,2,2.43v3.35H59.15V18.59c0-.73-.26-1.22-.89-1.22a.93.93,0,0,0-.89.65,1.16,1.16,0,0,0-.07.44v3.26H55.54Z"/><path class="cls-2" d="M63.56,14.5a.88.88,0,0,1-1,.88.89.89,0,1,1,0-1.77A.89.89,0,0,1,63.56,14.5Zm-1.82,7.22V16.07H63.5v5.65Z"/><path class="cls-2" d="M67.55,21.72l-.1-.57h0a2,2,0,0,1-1.61.7A1.73,1.73,0,0,1,64,20.11c0-1.46,1.32-2.17,3.32-2.16v-.08c0-.3-.17-.72-1-.72a3.18,3.18,0,0,0-1.56.42l-.32-1.13a4.61,4.61,0,0,1,2.19-.5,2.2,2.2,0,0,1,2.48,2.44v2a9.77,9.77,0,0,0,.08,1.37Zm-.21-2.67c-.92,0-1.64.21-1.64.89a.63.63,0,0,0,.7.67,1,1,0,0,0,.91-.65,1.39,1.39,0,0,0,0-.3Z"/><path class="cls-2" d="M73,19.46c.06.72.77,1.07,1.59,1.07a5,5,0,0,0,1.56-.23l.23,1.19a5.55,5.55,0,0,1-2,.35,2.71,2.71,0,0,1-3-2.88,2.84,2.84,0,0,1,2.86-3c1.82,0,2.52,1.43,2.52,2.82a4.63,4.63,0,0,1-.06.7Zm2.07-1.2a1,1,0,0,0-1-1.15A1.14,1.14,0,0,0,73,18.26Z"/><path class="cls-2" d="M77.16,17.87c0-.7,0-1.3,0-1.8h1.53l.08.78h0a2.07,2.07,0,0,1,1.75-.91c1.15,0,2,.77,2,2.43v3.35H80.76V18.59c0-.73-.25-1.22-.89-1.22A.94.94,0,0,0,79,18a1.4,1.4,0,0,0-.07.44v3.26H77.16Z"/><path class="cls-2" d="M84.71,19.46c.06.72.78,1.07,1.6,1.07a5,5,0,0,0,1.56-.23l.23,1.19a5.64,5.64,0,0,1-2,.35A2.71,2.71,0,0,1,83,19a2.83,2.83,0,0,1,2.85-3c1.83,0,2.52,1.43,2.52,2.82a4.63,4.63,0,0,1-.06.7Zm2.07-1.2a1,1,0,0,0-1-1.15,1.16,1.16,0,0,0-1.09,1.15Z"/><path class="cls-2" d="M88.88,17.93c0-.83,0-1.37,0-1.86h1.52l.05,1h0A1.66,1.66,0,0,1,92,15.94a1.31,1.31,0,0,1,.36,0v1.65a2.59,2.59,0,0,0-.47-.05,1.13,1.13,0,0,0-1.2.89,2.5,2.5,0,0,0,0,.4v2.86H88.88Z"/><path class="cls-2" d="M98,16.07c0,.36,0,.83,0,1.68V20.9a3.21,3.21,0,0,1-.86,2.54,3.47,3.47,0,0,1-2.3.69,4.51,4.51,0,0,1-2-.43l.35-1.33a3.45,3.45,0,0,0,1.64.42,1.35,1.35,0,0,0,1.47-1.49v-.37h0a1.78,1.78,0,0,1-1.52.74,2.48,2.48,0,0,1-2.39-2.76,2.7,2.7,0,0,1,2.56-3,1.72,1.72,0,0,1,1.55.8h0l.06-.67Zm-1.8,2.3a1.58,1.58,0,0,0,0-.32,1,1,0,0,0-1-.78c-.63,0-1.16.58-1.16,1.61,0,.84.42,1.5,1.16,1.5a.94.94,0,0,0,.92-.72,1.35,1.35,0,0,0,.06-.46Z"/><path class="cls-2" d="M100.61,14.5a.88.88,0,0,1-.94.88.89.89,0,1,1,0-1.77A.88.88,0,0,1,100.61,14.5ZM98.8,21.72V16.07h1.75v5.65Z"/><path class="cls-2" d="M104.61,21.72l-.11-.57h0a2,2,0,0,1-1.62.7A1.73,1.73,0,0,1,101,20.11c0-1.46,1.31-2.17,3.31-2.16v-.08c0-.3-.16-.72-1-.72a3.14,3.14,0,0,0-1.55.42l-.33-1.13a4.66,4.66,0,0,1,2.2-.5,2.2,2.2,0,0,1,2.48,2.44v2a8.45,8.45,0,0,0,.08,1.37Zm-.21-2.67c-.92,0-1.64.21-1.64.89a.63.63,0,0,0,.69.67,1,1,0,0,0,.92-.65,1.39,1.39,0,0,0,0-.3Z"/></svg>